<?xml version="1.0" encoding="UTF-8"?>
<svg version="1.1" xmlns="http://www.w3.org/2000/svg" width="249" height="272">
<path d="M0 0 C8.62488511 -0.10686811 15.00467102 2.28799002 21.4296875 8.16015625 C27.17123986 14.88719894 29.01889268 22.54788783 29.31640625 31.17578125 C29.35830078 32.33271484 29.40019531 33.48964844 29.44335938 34.68164062 C29.48267578 35.87982422 29.52199219 37.07800781 29.5625 38.3125 C29.60568359 39.53001953 29.64886719 40.74753906 29.69335938 42.00195312 C29.79921496 45.0011947 29.90129726 48.00051591 30 51 C30.76707275 50.57001709 31.53414551 50.14003418 32.32446289 49.69702148 C47.08011136 41.56200815 62.77598448 40.22947846 79 44 C94.41923972 48.6141785 107.19652238 59.22343307 115.46484375 72.92578125 C125.10163849 92.22389183 124.39826974 110.48874047 117.8671875 130.46484375 C117.58101563 131.30144531 117.29484375 132.13804687 117 133 C124.19541006 135.22930841 134.01195931 135.28366633 141 132.375 C148.78198733 128.19145042 154.88979597 122.27565886 157.75 113.76953125 C159.89949249 105.09692614 159.55504223 97.22998787 156 89 C154.51685863 86.73566204 152.94990533 84.66314793 151.20703125 82.59375 C150 81 150 81 150 79 C149.4225 78.71253906 148.845 78.42507812 148.25 78.12890625 C146.82907497 77.41597685 145.41184749 76.69558512 144 75.96484375 C143.01 75.45630859 143.01 75.45630859 142 74.9375 C141.01 74.42509766 141.01 74.42509766 140 73.90234375 C136.56887317 72.35431582 134.4669029 71.95488598 130.64453125 72.32421875 C126.36227442 72.73018194 123.23140859 72.82435732 119 72 C115.09209915 68.54365403 112.72099664 64.4098911 110 60 C107.80101801 57.51133176 105.43014617 55.26016185 103 53 C101.66666667 51.66666667 100.33333333 50.33333333 99 49 C114.17181073 41.45240729 130.52346693 39.52175471 146.953125 43.9765625 C161.98664138 49.02628211 174.71310245 59.6146869 182.42578125 73.58203125 C189.10256261 87.3491999 189.56299002 100.81456301 189.75 115.8125 C189.7677951 116.86483826 189.78559021 117.91717651 189.80392456 119.00140381 C190.29891072 148.33446392 189.6377169 177.67373183 189 207 C187.58525876 206.874624 186.17133779 206.73997554 184.7578125 206.6015625 C183.97035645 206.52760254 183.18290039 206.45364258 182.37158203 206.37744141 C175.0694278 205.21529086 169.50531476 200.66023047 165 195 C161.26502625 188.94481529 159.86876621 183.82156302 159.90234375 176.703125 C159.90556641 175.49785156 159.90878906 174.29257813 159.91210938 173.05078125 C159.92048828 171.79652344 159.92886719 170.54226562 159.9375 169.25 C159.94201172 167.98027344 159.94652344 166.71054688 159.95117188 165.40234375 C159.96295444 162.26818164 159.97940584 159.13411459 160 156 C159.14277344 156.40992188 158.28554687 156.81984375 157.40234375 157.2421875 C140.11505091 165.38884861 123.67081504 167.29824025 105.3125 160.875 C90.13119339 154.55559688 77.15595516 142.30134639 70.78515625 127.1015625 C65.10622608 112.02511444 64.43807342 93.92344507 71 79 C71.98307145 76.99162491 72.97899168 74.98935719 74 73 C62.28018053 70.39559567 51.4403597 71.80690005 41.1875 78.125 C34.7364877 83.16485336 31.25348746 91.10302901 30 99 C29.15874217 107.39728267 30.81444284 115.27900542 35.6875 122.25 C41.36171371 129.15107072 48.05364434 133.69737129 57 135 C59.37645082 134.8554861 61.7515652 134.68764335 64.125 134.5 C70.26250661 134.33376201 70.26250661 134.33376201 73.42578125 137.19140625 C75.43222457 140.05497099 77.20409516 143.00144427 79 146 C81.86417589 149.30118417 84.93187142 152.20575054 88.4375 154.8125 C88.953125 155.204375 89.46875 155.59625 90 156 C90 156.66 90 157.32 90 158 C87.93950145 158.81756238 85.87651147 159.62884734 83.8125 160.4375 C82.66394531 160.88996094 81.51539062 161.34242188 80.33203125 161.80859375 C65.97510989 166.94207677 48.6606798 165.31136799 35 159 C25.15750439 154.28846446 16.47926019 146.76605791 10 138 C9.25 135.6875 9.25 135.6875 9 134 C8.34 134 7.68 134 7 134 C6.01455946 131.29380548 5.03651592 128.58530517 4.0625 125.875 C3.64581055 124.73417969 3.64581055 124.73417969 3.22070312 123.5703125 C2.95322266 122.82265625 2.68574219 122.075 2.41015625 121.3046875 C2.16402588 120.62390137 1.91789551 119.94311523 1.66430664 119.24169922 C-0.2126766 112.90782927 -0.13667107 106.67252271 -0.11352539 100.12939453 C-0.11367142 99.04587204 -0.11381744 97.96234955 -0.1139679 96.84599304 C-0.11327284 93.27491229 -0.10549947 89.70388411 -0.09765625 86.1328125 C-0.09579063 83.65274077 -0.0943674 81.17266867 -0.09336853 78.69259644 C-0.08955474 72.17259703 -0.07973414 65.65261998 -0.06866455 59.13262939 C-0.05788405 52.47644472 -0.05386567 45.82025353 -0.04882812 39.1640625 C-0.03811087 26.10936547 -0.02124096 13.05468393 0 0 Z " fill="#BC2DC8" transform="translate(19,28)"/>
<path d="M0 0 C8.62488511 -0.10686811 15.00467102 2.28799002 21.4296875 8.16015625 C27.17123986 14.88719894 29.01889268 22.54788783 29.31640625 31.17578125 C29.35830078 32.33271484 29.40019531 33.48964844 29.44335938 34.68164062 C29.48267578 35.87982422 29.52199219 37.07800781 29.5625 38.3125 C29.60568359 39.53001953 29.64886719 40.74753906 29.69335938 42.00195312 C29.79921496 45.0011947 29.90129726 48.00051591 30 51 C31.98 51 33.96 51 36 51 C34.75023244 54.65316671 34.32901247 55.78065836 31 58 C29.55938708 62.32183876 29.4765117 67.48380432 30 72 C30.66 72.66 31.32 73.32 32 74 C32.99 74 33.98 74 35 74 C35.33 73.34 35.66 72.68 36 72 C35.125 79.625 35.125 79.625 34 83 C33.814375 84.2684375 33.814375 84.2684375 33.625 85.5625 C33.09498533 88.47758066 32.36341874 91.01300859 31.4375 93.8125 C28.86347494 102.29537076 29.50465757 109.83540769 33 118 C37.78835134 126.39826108 44.87039322 131.97787279 54.15625 134.5859375 C57.57684467 135.08399112 60.68281223 134.77213878 64.125 134.5 C70.26250661 134.33376201 70.26250661 134.33376201 73.42578125 137.19140625 C75.43222457 140.05497099 77.20409516 143.00144427 79 146 C81.86417589 149.30118417 84.93187142 152.20575054 88.4375 154.8125 C88.953125 155.204375 89.46875 155.59625 90 156 C90 156.66 90 157.32 90 158 C87.93950145 158.81756238 85.87651147 159.62884734 83.8125 160.4375 C82.66394531 160.88996094 81.51539062 161.34242188 80.33203125 161.80859375 C65.97510989 166.94207677 48.6606798 165.31136799 35 159 C25.15750439 154.28846446 16.47926019 146.76605791 10 138 C9.25 135.6875 9.25 135.6875 9 134 C8.34 134 7.68 134 7 134 C6.01455946 131.29380548 5.03651592 128.58530517 4.0625 125.875 C3.64581055 124.73417969 3.64581055 124.73417969 3.22070312 123.5703125 C2.95322266 122.82265625 2.68574219 122.075 2.41015625 121.3046875 C2.16402588 120.62390137 1.91789551 119.94311523 1.66430664 119.24169922 C-0.2126766 112.90782927 -0.13667107 106.67252271 -0.11352539 100.12939453 C-0.11367142 99.04587204 -0.11381744 97.96234955 -0.1139679 96.84599304 C-0.11327284 93.27491229 -0.10549947 89.70388411 -0.09765625 86.1328125 C-0.09579063 83.65274077 -0.0943674 81.17266867 -0.09336853 78.69259644 C-0.08955474 72.17259703 -0.07973414 65.65261998 -0.06866455 59.13262939 C-0.05788405 52.47644472 -0.05386567 45.82025353 -0.04882812 39.1640625 C-0.03811087 26.10936547 -0.02124096 13.05468393 0 0 Z " fill="#5D21A2" transform="translate(19,28)"/>
<path d="M0 0 C13.56657866 11.17125556 22.48904484 24.25876637 25.42382812 41.79443359 C26.07972361 49.04291201 26.08314708 56.33444101 26.17382812 63.60693359 C26.19162323 64.65927185 26.20941833 65.71161011 26.22775269 66.7958374 C26.72273884 96.12889751 26.06154502 125.46816542 25.42382812 154.79443359 C24.00908689 154.6690576 22.59516592 154.53440913 21.18164062 154.39599609 C20.39418457 154.32203613 19.60672852 154.24807617 18.79541016 154.171875 C11.49325592 153.00972445 5.92914289 148.45466407 1.42382812 142.79443359 C-2.31114562 136.73924888 -3.70740566 131.61599661 -3.67382812 124.49755859 C-3.67060547 123.29228516 -3.66738281 122.08701172 -3.6640625 120.84521484 C-3.65568359 119.59095703 -3.64730469 118.33669922 -3.63867188 117.04443359 C-3.63416016 115.77470703 -3.62964844 114.50498047 -3.625 113.19677734 C-3.61321744 110.06261523 -3.59676604 106.92854818 -3.57617188 103.79443359 C-4.56617188 103.29943359 -4.56617188 103.29943359 -5.57617188 102.79443359 C-4.91617188 102.13443359 -4.25617188 101.47443359 -3.57617188 100.79443359 C-3.25361296 98.88310021 -3.25361296 98.88310021 -3.27319336 96.67456055 C-3.25655136 95.82219315 -3.23990936 94.96982574 -3.22276306 94.09162903 C-3.21434891 93.16468735 -3.20593475 92.23774567 -3.19726562 91.28271484 C-3.18027115 90.32229782 -3.16327667 89.3618808 -3.14576721 88.37236023 C-3.09252554 85.28395271 -3.05240292 82.19555438 -3.01367188 79.10693359 C-2.95499711 75.08210156 -2.89058701 71.05739424 -2.82226562 67.03271484 C-2.80634369 66.06198029 -2.79042175 65.09124573 -2.77401733 64.09109497 C-2.62809897 56.30097436 -2.21767153 48.55942877 -1.57617188 40.79443359 C-0.58617187 40.79443359 0.40382813 40.79443359 1.42382812 40.79443359 C1.42382812 39.47443359 1.42382812 38.15443359 1.42382812 36.79443359 C0.76382813 36.79443359 0.10382813 36.79443359 -0.57617188 36.79443359 C-0.57617188 35.47443359 -0.57617188 34.15443359 -0.57617188 32.79443359 C-2.22617188 32.79443359 -3.87617188 32.79443359 -5.57617188 32.79443359 C-5.57617188 31.80443359 -5.57617188 30.81443359 -5.57617188 29.79443359 C-6.23617187 29.79443359 -6.89617187 29.79443359 -7.57617188 29.79443359 C-7.90617187 28.80443359 -8.23617187 27.81443359 -8.57617188 26.79443359 C-6.57617188 23.79443359 -6.57617188 23.79443359 -3.95117188 23.10693359 C-2.77554688 22.95224609 -2.77554688 22.95224609 -1.57617188 22.79443359 C-0.78390239 23.8981678 0.00761748 25.00244011 0.79882812 26.10693359 C1.2396875 26.72181641 1.68054688 27.33669922 2.13476562 27.97021484 C3.2579372 29.5596728 4.3442426 31.1750553 5.42382812 32.79443359 C3.67007489 23.94595138 -3.48856224 16.87444175 -10.57617188 11.79443359 C-20.64597544 6.21426115 -29.92745652 4.47094115 -41.28125 4.40380859 C-47.03257095 4.24707313 -50.07567165 3.40923537 -54.57617188 -0.20556641 C-54.90617187 -0.20556641 -55.23617187 -0.20556641 -55.57617188 -0.20556641 C-54.25617188 1.44443359 -52.93617188 3.09443359 -51.57617188 4.79443359 C-52.23617187 4.79443359 -52.89617187 4.79443359 -53.57617188 4.79443359 C-53.90617188 5.45443359 -54.23617187 6.11443359 -54.57617188 6.79443359 C-57.87617187 3.82443359 -61.17617187 0.85443359 -64.57617188 -2.20556641 C-61.45484371 -5.32689457 -59.86170253 -6.0212585 -55.76367188 -7.33056641 C-54.74660156 -7.66314453 -53.72953125 -7.99572266 -52.68164062 -8.33837891 C-35.51234982 -13.13282238 -14.39765497 -11.01233275 0 0 Z " fill="#ED3C96" transform="translate(182.576171875,80.20556640625)"/>
<path d="M0 0 C12.66494335 10.85037545 20.42393604 24.47676149 23 41 C23.60492472 49.14169168 23.18828642 56.66068157 21.25 64.5625 C21.01470581 65.54343628 21.01470581 65.54343628 20.7746582 66.54418945 C19.56004694 71.07116506 17.73172087 74.2754478 15 78 C9.46909214 76.65099808 5.6558804 74.30344666 2 70 C-2.01847959 63.17939676 -4.98359902 57.06742859 -5.1875 49.125 C-5.86679144 39.90310406 -8.97133307 31.32373233 -15.875 24.9375 C-24.65236516 18.16110506 -32.97968395 16.04171165 -44 17 C-52.86698687 19.13550469 -59.79849212 23.30237149 -66 30 C-66.90064221 27.4782018 -67.19407719 26.42696982 -66.0625 23.9375 C-65.711875 23.298125 -65.36125 22.65875 -65 22 C-65 21.01 -65 20.02 -65 19 C-66.98 19.495 -66.98 19.495 -69 20 C-71.30055997 16.54916005 -71.27010256 15.12824272 -71.25 11.0625 C-71.25515625 10.02222656 -71.2603125 8.98195313 -71.265625 7.91015625 C-71.00629936 5.06901505 -70.46519702 3.41292366 -69 1 C-68.01 1 -67.02 1 -66 1 C-65.34 -0.65 -64.68 -2.3 -64 -4 C-65.32 -4.33 -66.64 -4.66 -68 -5 C-46.20547947 -17.97414987 -19.87191058 -14.8187676 0 0 Z " fill="#872DC2" transform="translate(119,83)"/>
<path d="M0 0 C10.03865132 4.93965383 15.99064877 10.16290424 20.0859375 20.7578125 C21.31013534 25.1000527 21.45194404 29.25354862 21.625 33.7421875 C22.26278875 39.28297727 24.65083157 44.00008071 27 49 C27.33 49.99 27.66 50.98 28 52 C29.31403276 52.70394612 30.6520257 53.36345658 32 54 C32.70125 54.639375 33.4025 55.27875 34.125 55.9375 C42.27895703 61.78707787 52.29827222 61.94780875 62 61 C69.92625399 58.98137129 75.39034027 53.6600459 81 48 C81.97523612 56.58207789 77.78974473 65.98183946 72.4765625 72.6640625 C66.55337433 78.02313751 58.07329222 77.39452168 50.5859375 77.22265625 C38.86811085 76.49507878 28.52465474 72.2182718 20 64 C18.74609375 61.78125 18.74609375 61.78125 18 60 C17.34 60 16.68 60 16 60 C15.9175 59.21625 15.835 58.4325 15.75 57.625 C15.5025 56.75875 15.255 55.8925 15 55 C14.360625 54.731875 13.72125 54.46375 13.0625 54.1875 C11 53 11 53 10.36328125 51.17578125 C10.04299258 49.74857496 9.75151493 48.31453184 9.4921875 46.875 C9.10876847 44.77250014 9.10876847 44.77250014 7 43 C4.63008614 40.63008614 4.72844552 40.05340149 4.62109375 36.82421875 C4.56985352 35.58188477 4.56985352 35.58188477 4.51757812 34.31445312 C4.49115234 33.44755859 4.46472656 32.58066406 4.4375 31.6875 C4.2364627 24.28417506 4.2364627 24.28417506 3 17 C2.67 17 2.34 17 2 17 C1.67 15.35 1.34 13.7 1 12 C0.34 13.98 -0.32 15.96 -1 18 C-1.33 18 -1.66 18 -2 18 C-2.33 16.02 -2.66 14.04 -3 12 C-3.66 12.66 -4.32 13.32 -5 14 C-4.46515599 8.65155992 -2.53309233 4.64203897 0 0 Z " fill="#F42FA0" transform="translate(93,101)"/>
<path d="M0 0 C13.56657866 11.17125556 22.48904484 24.25876637 25.42382812 41.79443359 C26.07972361 49.04291201 26.08314708 56.33444101 26.17382812 63.60693359 C26.19162323 64.65927185 26.20941833 65.71161011 26.22775269 66.7958374 C26.72273884 96.12889751 26.06154502 125.46816542 25.42382812 154.79443359 C23.99737404 154.66767546 22.57173119 154.53176946 21.14648438 154.39208984 C20.35250244 154.31740479 19.55852051 154.24271973 18.74047852 154.16577148 C15.60577104 153.66330652 13.14020465 152.39639924 10.42382812 150.79443359 C13.23866857 149.38701337 14.99318926 150.12791196 18.04882812 150.73193359 C19.55316406 151.02390625 19.55316406 151.02390625 21.08789062 151.32177734 C22.24417969 151.55574219 22.24417969 151.55574219 23.42382812 151.79443359 C23.65755145 124.95580494 23.41662572 98.21036848 22.13525391 71.39794922 C22.06650558 69.95792038 22.06650558 69.95792038 21.99636841 68.48880005 C21.90798577 66.65122015 21.81809948 64.8137118 21.72653198 62.97628784 C21.46963009 57.61525336 21.35857755 52.29288663 21.58398438 46.92651367 C21.38456086 44.27168809 20.47025184 42.22845693 19.42382812 39.79443359 C19.11523438 37.54833984 19.11523438 37.54833984 18.98632812 35.35693359 C18.59180399 31.28245157 17.75532813 28.24850767 15.42382812 24.79443359 C13.34692235 23.83399257 13.34692235 23.83399257 11.42382812 23.79443359 C11.42382812 20.6818579 11.59744437 18.68677675 12.42382812 15.79443359 C11.10382813 15.46443359 9.78382813 15.13443359 8.42382812 14.79443359 C8.42382812 14.13443359 8.42382812 13.47443359 8.42382812 12.79443359 C7.49570313 12.52630859 6.56757813 12.25818359 5.61132812 11.98193359 C2.59266403 10.85733324 1.50831382 10.08736786 -0.57617188 7.79443359 C-1.23617187 7.79443359 -1.89617187 7.79443359 -2.57617188 7.79443359 C-2.08117187 11.75443359 -2.08117187 11.75443359 -1.57617188 15.79443359 C-0.58617187 16.12443359 0.40382813 16.45443359 1.42382812 16.79443359 C2.43734477 18.45291537 3.43503608 20.1210932 4.42382812 21.79443359 C5.29007812 22.64005859 6.15632813 23.48568359 7.04882812 24.35693359 C9.52111441 26.89428004 9.73307281 27.53286721 10.42382812 30.79443359 C10.93657511 32.25562968 11.45773745 33.71389405 11.98632812 35.16943359 C13.24317247 38.88532122 13.59527699 41.85110962 13.42382812 45.79443359 C13.60945313 46.86693359 13.79507813 47.93943359 13.98632812 49.04443359 C14.45565483 53.06723391 14.09001964 56.52047968 13.61523438 60.51708984 C13.39467867 63.14125259 13.83357459 65.23666826 14.42382812 67.79443359 C14.51572159 70.79628675 14.48269779 73.79208062 14.42382812 76.79443359 C13.76382813 76.79443359 13.10382813 76.79443359 12.42382812 76.79443359 C11.6448537 73.3222547 11.28253797 70.06839296 11.21289062 66.51318359 C10.716261 47.41523751 9.37132618 31.38837092 -4.38867188 16.79443359 C-14.9860446 7.1054071 -27.59091135 4.28267791 -41.54638672 4.29711914 C-47.22824045 4.21970514 -50.12436789 3.35587679 -54.57617188 -0.20556641 C-54.90617187 -0.20556641 -55.23617187 -0.20556641 -55.57617188 -0.20556641 C-54.25617188 1.44443359 -52.93617188 3.09443359 -51.57617188 4.79443359 C-52.23617187 4.79443359 -52.89617187 4.79443359 -53.57617188 4.79443359 C-53.90617188 5.45443359 -54.23617187 6.11443359 -54.57617188 6.79443359 C-57.87617187 3.82443359 -61.17617187 0.85443359 -64.57617188 -2.20556641 C-61.45484371 -5.32689457 -59.86170253 -6.0212585 -55.76367188 -7.33056641 C-54.74660156 -7.66314453 -53.72953125 -7.99572266 -52.68164062 -8.33837891 C-35.51234982 -13.13282238 -14.39765497 -11.01233275 0 0 Z " fill="#FB7066" transform="translate(182.576171875,80.20556640625)"/>
<path d="M0 0 C3.51257011 -0.41324354 4.71545575 -0.21901285 7.578125 1.984375 C12.07533184 4.63341465 15.51286735 4.50529007 20.625 4.5 C34.45240693 4.85728114 46.42668003 8.64953832 56.75 18.25 C61.85427973 23.70504777 66.5972594 30.34792863 67 38 C64.82418313 35.15118272 62.79062001 32.23915912 60.8125 29.25 C60.28269531 28.45078125 59.75289062 27.6515625 59.20703125 26.828125 C58.80871094 26.22484375 58.41039062 25.6215625 58 25 C56.35 25.33 54.7 25.66 53 26 C52.505 28.475 52.505 28.475 52 31 C52.66 31 53.32 31 54 31 C54 31.99 54 32.98 54 34 C56.475 33.505 56.475 33.505 59 33 C59.33 33.99 59.66 34.98 60 36 C59.505 36.99 59.505 36.99 59 38 C59.66 38 60.32 38 61 38 C61 39.32 61 40.64 61 42 C60.01 42 59.02 42 58 42 C57.67 61.8 57.34 81.6 57 102 C55.02 102.99 55.02 102.99 53 104 C52.67 103.01 52.34 102.02 52 101 C52.99 99.515 52.99 99.515 54 98 C54.27356843 96.06862318 54.27356843 96.06862318 54.1953125 93.98828125 C54.18564453 92.85229492 54.18564453 92.85229492 54.17578125 91.69335938 C54.15902344 90.90767578 54.14226562 90.12199219 54.125 89.3125 C54.11597656 88.51521484 54.10695312 87.71792969 54.09765625 86.89648438 C54.07411585 84.930861 54.03824547 82.96539225 54 81 C51.62711067 83.9336605 51.62711067 83.9336605 50.5625 87.5 C49.84559248 90.68625566 48.34430213 91.80221675 46 94 C45.505 95.485 45.505 95.485 45 97 C43.68 96.67 42.36 96.34 41 96 C42.1006225 93.76171481 43.24059099 91.56000616 44.4375 89.37109375 C47.62652155 83.38370579 49.62504537 78.18207577 50.5703125 71.46875 C50.97587741 69.13859523 51.57789355 67.32550258 52.5625 65.1875 C56.20507213 57.11049224 55.70813292 48.73850306 53.06640625 40.46875 C51.60146243 37.07737823 49.57675722 34.40743924 47.20703125 31.59375 C46 30 46 30 46 28 C45.13375 27.56880859 45.13375 27.56880859 44.25 27.12890625 C42.82907497 26.41597685 41.41184749 25.69558512 40 24.96484375 C39.34 24.62582031 38.68 24.28679687 38 23.9375 C37.34 23.59589844 36.68 23.25429687 36 22.90234375 C32.56887317 21.35431582 30.4669029 20.95488598 26.64453125 21.32421875 C22.34892338 21.73144763 19.24527512 21.83334794 15 21 C10.90523289 17.57268522 8.19297937 13.92145371 6 9 C6.28125 6.609375 6.28125 6.609375 7 5 C4.702779 3.25728062 2.40133271 1.60088848 0 0 Z " fill="#BE23B4" transform="translate(123,79)"/>
<path d="M0 0 C12.56721521 10.76664929 20.59559341 24.52348746 23 41 C23.06774144 43.61481958 23.09500258 46.19979256 23.0625 48.8125 C23.05798828 49.50537109 23.05347656 50.19824219 23.04882812 50.91210938 C23.03713156 52.60811068 23.01919924 54.30406703 23 56 C22.67 56 22.34 56 22 56 C21.67 54.35 21.34 52.7 21 51 C18.96834048 55.33420699 18.47939368 59.28596212 18 64 C16.515 64.495 16.515 64.495 15 65 C14.34 65.99 13.68 66.98 13 68 C8.96400515 62.10061237 8.35030571 57.36014519 8 50.3125 C6.88430598 35.01389202 3.14552489 23.09608227 -8.625 12.5 C-13.02359782 9.03110581 -17.42386795 6.82001942 -23 6 C-23 5.34 -23 4.68 -23 4 C-18.94643679 3.92888486 -15.26702133 3.9599468 -11.25 4.5625 C-8.3407947 4.95412379 -6.71271049 4.97657578 -4 4 C-4.66 4 -5.32 4 -6 4 C-6.66 2.02 -7.32 0.04 -8 -2 C-8.680625 -2.12375 -9.36125 -2.2475 -10.0625 -2.375 C-13 -3 -13 -3 -16.625 -4.125 C-19.95890223 -5.31602765 -19.95890223 -5.31602765 -23 -4 C-23 -5.32 -23 -6.64 -23 -8 C-24.32 -8 -25.64 -8 -27 -8 C-27 -8.99 -27 -9.98 -27 -11 C-34.59 -11 -42.18 -11 -50 -11 C-50 -11.33 -50 -11.66 -50 -12 C-31.74193019 -15.17531649 -14.84513028 -11.07022572 0 0 Z " fill="#CA35CB" transform="translate(119,83)"/>
<path d="M0 0 C10.03865132 4.93965383 15.99064877 10.16290424 20.0859375 20.7578125 C21.31013534 25.1000527 21.45194404 29.25354862 21.625 33.7421875 C22.26278875 39.28297727 24.65083157 44.00008071 27 49 C27.33 49.99 27.66 50.98 28 52 C29.31403276 52.70394612 30.6520257 53.36345658 32 54 C32.70125 54.639375 33.4025 55.27875 34.125 55.9375 C42.27895703 61.78707787 52.29827222 61.94780875 62 61 C69.92625399 58.98137129 75.39034027 53.6600459 81 48 C81.7956594 55.00180272 79.20817499 60.83641532 76 67 C75.01 67.495 75.01 67.495 74 68 C73.34 67.67 72.68 67.34 72 67 C71.87625 67.61875 71.7525 68.2375 71.625 68.875 C71 71 71 71 69 73 C58.97960819 76.39496857 48.83669725 77.3302852 39 73 C39 72.34 39 71.68 39 71 C38.01 71 37.02 71 36 71 C35.375 68.1875 35.375 68.1875 35 65 C37 62 37 62 38 61 C35.36 59.68 32.72 58.36 30 57 C30 56.01 30 55.02 30 54 C28.515 53.505 28.515 53.505 27 53 C19.77854637 44.85271899 17.89217789 34.08709287 16.4921875 23.55859375 C16.00300759 21.01563469 15.23566724 19.25602882 14 17 C13.54625 15.824375 13.0925 14.64875 12.625 13.4375 C11.016501 10.03490596 10.04072032 8.99219607 7 7 C7 6.34 7 5.68 7 5 C2.545 5.495 2.545 5.495 -2 6 C-1.34 4.02 -0.68 2.04 0 0 Z " fill="#F52AA6" transform="translate(93,101)"/>
<path d="M0 0 C9.80791411 1.2700896 18.93622127 10.62573429 25 18 C36.15714762 34.04088128 37.6519993 49.98357624 37.8125 69 C37.843829 71.13981844 37.8756618 73.27962955 37.90795898 75.41943359 C38.26421519 103.61104665 37.61288122 131.81583372 37 160 C35.57354591 159.87324186 34.14790307 159.73733587 32.72265625 159.59765625 C31.92867432 159.52297119 31.13469238 159.44828613 30.31665039 159.37133789 C27.18194292 158.86887292 24.71637653 157.60196564 22 156 C24.81484045 154.59257978 26.56936113 155.33347836 29.625 155.9375 C31.12933594 156.22947266 31.12933594 156.22947266 32.6640625 156.52734375 C33.82035156 156.76130859 33.82035156 156.76130859 35 157 C35.23372332 130.16137134 34.99279759 103.41593488 33.71142578 76.60351562 C33.66559357 75.6434964 33.61976135 74.68347717 33.57254028 73.69436646 C33.48415765 71.85678655 33.39427135 70.0192782 33.30270386 68.18185425 C33.04580197 62.82081976 32.93474943 57.49845304 33.16015625 52.13208008 C32.96073273 49.4772545 32.04642372 47.43402333 31 45 C30.69140625 42.75390625 30.69140625 42.75390625 30.5625 40.5625 C30.16797586 36.48801798 29.3315 33.45407408 27 30 C24.92309422 29.03955898 24.92309422 29.03955898 23 29 C23 25.88742431 23.17361624 23.89234315 24 21 C22.68 20.67 21.36 20.34 20 20 C20 19.34 20 18.68 20 18 C19.071875 17.731875 18.14375 17.46375 17.1875 17.1875 C14.1688359 16.06289965 13.0844857 15.29293427 11 13 C10.34 13 9.68 13 9 13 C9 14.32 9 15.64 9 17 C4.25 16.125 4.25 16.125 2 15 C2 14.34 2 13.68 2 13 C2.99 13 3.98 13 5 13 C5.11320856 7.91696314 5.11320856 7.91696314 4 3 C2.00334686 1.31461399 2.00334686 1.31461399 0 0 Z " fill="#EFA888" transform="translate(171,75)"/>
<path d="M0 0 C2.3125 2.5 2.3125 2.5 4 5 C3.360625 5.226875 2.72125 5.45375 2.0625 5.6875 C-0.27193661 6.85250896 -0.27193661 6.85250896 -0.75 9.625 C-0.8325 10.40875 -0.915 11.1925 -1 12 C-0.34 12 0.32 12 1 12 C1 12.99 1 13.98 1 15 C2.65 14.67 4.3 14.34 6 14 C6.33 14.99 6.66 15.98 7 17 C6.67 17.66 6.34 18.32 6 19 C6.66 19 7.32 19 8 19 C8 20.32 8 21.64 8 23 C7.01 23 6.02 23 5 23 C4.67 42.8 4.34 62.6 4 83 C2.02 83.99 2.02 83.99 0 85 C-0.33 84.01 -0.66 83.02 -1 82 C-0.34 81.01 0.32 80.02 1 79 C1.27356843 77.06862318 1.27356843 77.06862318 1.1953125 74.98828125 C1.18886719 74.23095703 1.18242187 73.47363281 1.17578125 72.69335938 C1.15902344 71.90767578 1.14226562 71.12199219 1.125 70.3125 C1.11597656 69.51521484 1.10695312 68.71792969 1.09765625 67.89648438 C1.07411585 65.930861 1.03824547 63.96539225 1 62 C-1.37288933 64.9336605 -1.37288933 64.9336605 -2.4375 68.5 C-3.15440752 71.68625566 -4.65569787 72.80221675 -7 75 C-7.33 75.99 -7.66 76.98 -8 78 C-9.32 77.67 -10.64 77.34 -12 77 C-10.8993775 74.76171481 -9.75940901 72.56000616 -8.5625 70.37109375 C-5.37347845 64.38370579 -3.37495463 59.18207577 -2.4296875 52.46875 C-2.02412259 50.13859523 -1.42210645 48.32550258 -0.4375 46.1875 C3.20507213 38.11049224 2.70813292 29.73850306 0.06640625 21.46875 C-1.39853757 18.07737823 -3.42324278 15.40743924 -5.79296875 12.59375 C-7 11 -7 11 -7 9 C-8.32 8.34 -9.64 7.68 -11 7 C-10.8125 4.625 -10.8125 4.625 -10 2 C-6.75556903 0.10741527 -3.71130414 -0.66613151 0 0 Z " fill="#C321B2" transform="translate(176,98)"/>
<path d="M0 0 C0.66 0.66 1.32 1.32 2 2 C-10.87 1.505 -10.87 1.505 -24 1 C-24 1.66 -24 2.32 -24 3 C-23.34 3 -22.68 3 -22 3 C-22 3.66 -22 4.32 -22 5 C-21.34 5 -20.68 5 -20 5 C-19.67 5.99 -19.34 6.98 -19 8 C-16.36821272 9.10202887 -16.36821272 9.10202887 -13 10 C-11.37289244 10.53530249 -9.74794051 11.07719358 -8.125 11.625 C-6.95324219 12.01558594 -6.95324219 12.01558594 -5.7578125 12.4140625 C-5.17773438 12.60742188 -4.59765625 12.80078125 -4 13 C-4.33 13.66 -4.66 14.32 -5 15 C-5.48984375 14.79503906 -5.9796875 14.59007813 -6.484375 14.37890625 C-13.57032827 11.82551964 -20.40696886 11.57651026 -27.86621094 11.55493164 C-33.57203376 11.43960118 -36.53169386 10.578914 -41 7 C-41.33 7 -41.66 7 -42 7 C-40.68 8.65 -39.36 10.3 -38 12 C-38.66 12 -39.32 12 -40 12 C-40.33 12.66 -40.66 13.32 -41 14 C-44.3 11.03 -47.6 8.06 -51 5 C-47.87867183 1.87867183 -46.28553066 1.18430791 -42.1875 -0.125 C-41.17042969 -0.45757812 -40.15335938 -0.79015625 -39.10546875 -1.1328125 C-26.70343069 -4.59602313 -12.17045605 -4.24505507 0 0 Z " fill="#F1598A" transform="translate(169,73)"/>
<path d="M0 0 C2 2 2 2 2.24050903 4.13870239 C2.2338472 5.4644075 2.2338472 5.4644075 2.22705078 6.81689453 C2.22689972 7.81778107 2.22674866 8.8186676 2.22659302 9.84988403 C2.21627045 10.93325043 2.20594788 12.01661682 2.1953125 13.1328125 C2.1924826 14.23978485 2.18965271 15.3467572 2.18673706 16.48727417 C2.17551519 20.03329137 2.15040691 23.57905875 2.125 27.125 C2.1149728 29.52473594 2.1058465 31.92447583 2.09765625 34.32421875 C2.07556932 40.21623151 2.04207207 46.10809791 2 52 C1.67 51.34 1.34 50.68 1 50 C-1.41890149 49.6059614 -1.41890149 49.6059614 -4.25 49.5 C-9.22956862 49.23083413 -13.11991943 48.70358321 -16.9140625 45.265625 C-25.20277121 35.50084488 -25.20277121 35.50084488 -24.8125 30.6875 C-24 29 -24 29 -22 28 C-21.34 30.31 -20.68 32.62 -20 35 C-19.4225 34.814375 -18.845 34.62875 -18.25 34.4375 C-15.65091213 33.9321218 -14.41710412 33.90840459 -12 35 C-10.125 37.25 -10.125 37.25 -9 40 C-9.8125 42.8125 -9.8125 42.8125 -11 45 C-9.68 45.33 -8.36 45.66 -7 46 C-8.20529624 40.22986695 -8.20529624 40.22986695 -9.765625 34.55078125 C-12.06200114 27.20012626 -12.36253244 20.47353509 -12.1875 12.8125 C-12.17396484 11.66974609 -12.16042969 10.52699219 -12.14648438 9.34960938 C-12.1115423 6.56589037 -12.06249011 3.78321336 -12 1 C-11.67 2.32 -11.34 3.64 -11 5 C-10.34 5 -9.68 5 -9 5 C-9.185625 6.299375 -9.37125 7.59875 -9.5625 8.9375 C-10.05080305 13.16500039 -9.80713453 16.95857639 -9.15625 21.15234375 C-9 23 -9 23 -10 25 C-9.01 25 -8.02 25 -7 25 C-7.0928125 26.7634375 -7.0928125 26.7634375 -7.1875 28.5625 C-7.19523967 32.94315156 -5.93555499 36.05444559 -4 40 C-3.32723284 41.6642135 -2.65793165 43.32986582 -2 45 C-0.80658885 41.41976654 -0.90402799 38.58284102 -0.9375 34.8046875 C-0.94128662 34.09780792 -0.94507324 33.39092834 -0.94897461 32.66262817 C-0.96524939 29.64610581 -0.99315668 26.62972045 -1.02050781 23.61328125 C-1.08628149 15.67889851 -1.14274717 7.87424222 0 0 Z " fill="#F23A9D" transform="translate(205,182)"/>
<path d="M0 0 C8.77580048 0 14.91995346 2.21056212 21.4296875 8.16015625 C27.30328082 15.04190365 29.03482725 22.80388099 29.31640625 31.61328125 C29.35830078 32.86044922 29.40019531 34.10761719 29.44335938 35.39257812 C29.48267578 36.68615234 29.52199219 37.97972656 29.5625 39.3125 C29.60568359 40.62541016 29.64886719 41.93832031 29.69335938 43.29101562 C29.79927227 46.52724288 29.90134885 49.76354458 30 53 C29.34 53 28.68 53 28 53 C27.505 40.625 27.505 40.625 27 28 C26.67 29.65 26.34 31.3 26 33 C25.67 33 25.34 33 25 33 C24.51908942 30.79204578 24.04034821 28.583619 23.5625 26.375 C23.29566406 25.14523438 23.02882813 23.91546875 22.75390625 22.6484375 C22.27257882 20.319112 21.85314395 17.97556065 21.515625 15.62109375 C21.28861254 12.89517168 21.28861254 12.89517168 19.1875 11.6875 C17.1346322 11.04231298 15.10431501 10.45092465 13 10 C13 8.35 13 6.7 13 5 C12.34 5 11.68 5 11 5 C10.20046862 8.28696233 9.90341064 9.71023192 11 13 C10.34 13 9.68 13 9 13 C7.23537317 9.91190305 7 8.76687864 7 5 C5.68 4.67 4.36 4.34 3 4 C3 3.34 3 2.68 3 2 C2.34 1.67 1.68 1.34 1 1 C1 37.3 1 73.6 1 111 C0.67 111 0.34 111 0 111 C0 74.37 0 37.74 0 0 Z " fill="#AD82C4" transform="translate(19,28)"/>
<path d="M0 0 C2.2578125 -0.31640625 2.2578125 -0.31640625 5 0 C6.9921875 2.16015625 6.9921875 2.16015625 8.875 5.0625 C12.78617826 10.79643492 16.85439416 15.66095976 22.4375 19.8125 C22.953125 20.204375 23.46875 20.59625 24 21 C24 21.66 24 22.32 24 23 C18.12108508 26.11318426 12.73542272 28.22462231 6 27 C5.34 26.34 4.68 25.68 4 25 C4.66 25 5.32 25 6 25 C6.33 24.01 6.66 23.02 7 22 C8.32 22.33 9.64 22.66 11 23 C12.231394 19.30581799 11.64432764 16.7943739 11 13 C9.576875 13.495 9.576875 13.495 8.125 14 C5 15 5 15 3 15 C1.875 7.25 1.875 7.25 3 5 C2.236875 5.20625 1.47375 5.4125 0.6875 5.625 C-2 6 -2 6 -5 4 C-5.99 4.33 -6.98 4.66 -8 5 C-8.66 4.67 -9.32 4.34 -10 4 C-10 3.34 -10 2.68 -10 2 C-6.7 2 -3.4 2 0 2 C0 1.34 0 0.68 0 0 Z " fill="#432E80" transform="translate(85,163)"/>
<path d="M0 0 C0.33 0 0.66 0 1 0 C1 14.85 1 29.7 1 45 C-0.32 45.66 -1.64 46.32 -3 47 C-3.495 45.515 -3.495 45.515 -4 44 C-3.34 43.01 -2.68 42.02 -2 41 C-1.72643157 39.06862318 -1.72643157 39.06862318 -1.8046875 36.98828125 C-1.81113281 36.23095703 -1.81757813 35.47363281 -1.82421875 34.69335938 C-1.84097656 33.90767578 -1.85773438 33.12199219 -1.875 32.3125 C-1.88402344 31.51521484 -1.89304688 30.71792969 -1.90234375 29.89648438 C-1.92588415 27.930861 -1.96175453 25.96539225 -2 24 C-4.37288933 26.9336605 -4.37288933 26.9336605 -5.4375 30.5 C-6.15440752 33.68625566 -7.65569787 34.80221675 -10 37 C-10.33 37.99 -10.66 38.98 -11 40 C-12.32 39.67 -13.64 39.34 -15 39 C-13.8993775 36.76171481 -12.75940901 34.56000616 -11.5625 32.37109375 C-8.42053864 26.47206129 -6.48232854 21.42850053 -5.56640625 14.82421875 C-4.51886496 9.60096114 -2.20621426 4.8250411 0 0 Z " fill="#AF149B" transform="translate(179,136)"/>
<path d="M0 0 C3.94949704 0.62816498 7.19892028 1.8645529 10.8125 3.5625 C12.27623047 4.24505859 12.27623047 4.24505859 13.76953125 4.94140625 C14.87361328 5.46541016 14.87361328 5.46541016 16 6 C16 6.99 16 7.98 16 9 C16.99 9.33 17.98 9.66 19 10 C20.01351664 11.65848177 21.01120795 13.32665961 22 15 C22.86625 15.845625 23.7325 16.69125 24.625 17.5625 C27.09728628 20.09984645 27.30924469 20.73843361 28 24 C28.51274699 25.46119608 29.03390932 26.91946045 29.5625 28.375 C30.81934434 32.09088763 31.17144887 35.05667603 31 39 C31.185625 40.0725 31.37125 41.145 31.5625 42.25 C32.0318267 46.27280032 31.66619152 49.72604609 31.19140625 53.72265625 C30.97085055 56.34681899 31.40974646 58.44223466 32 61 C32.09189346 64.00185316 32.05886967 66.99764702 32 70 C31.34 70 30.68 70 30 70 C29.22102557 66.5278211 28.85870984 63.27395936 28.7890625 59.71875 C28.29220998 40.6122324 26.9074694 24.76806405 13.30078125 10.078125 C9.87491996 6.98379867 6.09715021 4.64397947 2.125 2.3125 C1.42375 1.879375 0.7225 1.44625 0 1 C0 0.67 0 0.34 0 0 Z " fill="#FB6D7B" transform="translate(165,87)"/>
<path d="M0 0 C4.85963179 0.60745397 8.7405518 2.72758967 13 5 C13 5.66 13 6.32 13 7 C15.64 7.33 18.28 7.66 21 8 C21 8.66 21 9.32 21 10 C22.299375 9.979375 23.59875 9.95875 24.9375 9.9375 C26.29165633 9.91600546 27.64756083 9.92851801 29 10 C29.33 10.33 29.66 10.66 30 11 C31.34015221 11.15582303 32.68758903 11.25044142 34.03515625 11.31640625 C34.84404297 11.35830078 35.65292969 11.40019531 36.48632812 11.44335938 C37.33646484 11.48267578 38.18660156 11.52199219 39.0625 11.5625 C39.91650391 11.60568359 40.77050781 11.64886719 41.65039062 11.69335938 C43.76672037 11.79976702 45.88333813 11.90041731 48 12 C48 11.34 48 10.68 48 10 C50.93253346 8.96448955 53.87166938 7.94918162 56.8125 6.9375 C57.64587891 6.64294922 58.47925781 6.34839844 59.33789062 6.04492188 C60.14033203 5.77099609 60.94277344 5.49707031 61.76953125 5.21484375 C62.50792236 4.95823975 63.24631348 4.70163574 64.00708008 4.43725586 C66 4 66 4 69 5 C69 5.66 69 6.32 69 7 C51.52496978 15.27930907 34.83916912 17.41568669 16.25 10.8125 C10.27251623 8.35549747 4.95443459 5.160383 0 1 C0 0.67 0 0.34 0 0 Z " fill="#AB60C4" transform="translate(108,178)"/>
<path d="M0 0 C0.66 0.33 1.32 0.66 2 1 C2.74666211 4.93694565 3.17600696 7.93680351 2.51953125 11.90234375 C1.39652434 19.06043392 1.96381205 26.46526665 2.0390625 33.68554688 C2.10528381 44.01055308 2.10528381 44.01055308 1.4375 48.71875 C0.95201072 52.35991957 1.64320529 53.69281289 3 57 C2.77593191 58.63189214 2.5455388 60.26321225 2.28027344 61.88891602 C1.96815141 64.23989091 1.86289971 66.5476577 1.7890625 68.91796875 C1.76070312 69.77970703 1.73234375 70.64144531 1.703125 71.52929688 C1.65070374 73.31293014 1.60653658 75.09682367 1.5703125 76.88085938 C1.539375 77.73873047 1.5084375 78.59660156 1.4765625 79.48046875 C1.45674316 80.25285889 1.43692383 81.02524902 1.41650391 81.82104492 C1 84 1 84 -2 88 C-2 79.09 -2 70.18 -2 61 C-2.66 60.67 -3.32 60.34 -4 60 C-3.34 59.34 -2.68 58.68 -2 58 C-1.67738713 56.0743564 -1.67738713 56.0743564 -1.69702148 53.84838867 C-1.68037949 52.98956589 -1.66373749 52.1307431 -1.64659119 51.24589539 C-1.63817703 50.3126796 -1.62976288 49.37946381 -1.62109375 48.41796875 C-1.60409927 47.45280838 -1.5871048 46.48764801 -1.56959534 45.49324036 C-1.51635086 42.39139449 -1.47621261 39.28955851 -1.4375 36.1875 C-1.37897769 32.13922741 -1.31470444 28.09108253 -1.24609375 24.04296875 C-1.23017181 23.07342255 -1.21424988 22.10387634 -1.19784546 21.10494995 C-1.06424187 14.03850997 -0.70531231 7.03534212 0 0 Z " fill="#E026AC" transform="translate(181,123)"/>
<path d="M0 0 C10.03865132 4.93965383 15.99064877 10.16290424 20.0859375 20.7578125 C21.31013534 25.1000527 21.45194404 29.25354862 21.625 33.7421875 C22.26278875 39.28297727 24.65083157 44.00008071 27 49 C27.33 49.99 27.66 50.98 28 52 C29.31403276 52.70394612 30.6520257 53.36345658 32 54 C32.70125 54.639375 33.4025 55.27875 34.125 55.9375 C38.0977381 58.78750777 42.30507856 59.79664149 47 61 C43.28125 63.078125 43.28125 63.078125 40.75 62.375 C39.8425 61.92125 38.935 61.4675 38 61 C37.30777344 60.6596875 36.61554688 60.319375 35.90234375 59.96875 C33.92728829 58.99341397 31.96133725 58.00256941 30 57 C30 56.01 30 55.02 30 54 C28.515 53.505 28.515 53.505 27 53 C19.77854637 44.85271899 17.89217789 34.08709287 16.4921875 23.55859375 C16.00300759 21.01563469 15.23566724 19.25602882 14 17 C13.54625 15.824375 13.0925 14.64875 12.625 13.4375 C11.016501 10.03490596 10.04072032 8.99219607 7 7 C7 6.34 7 5.68 7 5 C2.545 5.495 2.545 5.495 -2 6 C-1.34 4.02 -0.68 2.04 0 0 Z " fill="#DF48A9" transform="translate(93,101)"/>
<path d="M0 0 C3.48675573 3.19735967 6.7833687 6.5321784 10 10 C9.67 10.66 9.34 11.32 9 12 C6.9375 12.625 6.9375 12.625 5 13 C4.62875 11.9275 4.2575 10.855 3.875 9.75 C1.61305206 4.44353446 -2.94548542 2.33285288 -8 0 C-8 -0.66 -8 -1.32 -8 -2 C-8.680625 -2.12375 -9.36125 -2.2475 -10.0625 -2.375 C-13 -3 -13 -3 -16.625 -4.125 C-19.95890223 -5.31602765 -19.95890223 -5.31602765 -23 -4 C-23 -5.32 -23 -6.64 -23 -8 C-24.32 -8 -25.64 -8 -27 -8 C-27 -8.99 -27 -9.98 -27 -11 C-34.59 -11 -42.18 -11 -50 -11 C-50 -11.33 -50 -11.66 -50 -12 C-31.80686155 -15.16402408 -14.76066317 -11.12791155 0 0 Z " fill="#D452BF" transform="translate(119,83)"/>
<path d="M0 0 C0.33 0 0.66 0 1 0 C1.02505615 0.56920166 1.0501123 1.13840332 1.07592773 1.72485352 C1.19293894 4.33757313 1.3151828 6.95002362 1.4375 9.5625 C1.47681641 10.45775391 1.51613281 11.35300781 1.55664062 12.27539062 C1.83138515 18.04502565 2.22611015 23.71369309 3.5546875 29.35546875 C4.22516567 33.33716808 4.14381718 37.28248628 4.125 41.3125 C4.12886719 42.12912109 4.13273437 42.94574219 4.13671875 43.78710938 C4.13049849 47.69032262 3.9910656 51.45841959 3.43359375 55.32421875 C3.0535001 58.54645409 3.01443905 60.45932864 3.9375 63.5 C4.288125 64.655 4.63875 65.81 5 67 C3.02 67.495 3.02 67.495 1 68 C-0.10976041 64.67071876 -0.12030895 62.19972643 -0.11352539 58.69262695 C-0.11344986 57.39150467 -0.11337433 56.09038239 -0.11329651 54.74983215 C-0.10818985 53.3293148 -0.10297385 51.90879783 -0.09765625 50.48828125 C-0.09579091 49.03525338 -0.09436756 47.58222489 -0.09336853 46.12919617 C-0.08955246 42.30693828 -0.07972993 38.48471845 -0.06866455 34.66247559 C-0.05843087 30.76131709 -0.05386671 26.86015243 -0.04882812 22.95898438 C-0.03810686 15.30597224 -0.02104135 7.65299146 0 0 Z " fill="#30106C" transform="translate(20,80)"/>
<path d="M0 0 C0.33 0 0.66 0 1 0 C2.17340897 4.72360036 2.24065652 9.37239413 2.3515625 14.2109375 C2.37512314 15.14367493 2.39868378 16.07641235 2.42295837 17.03741455 C2.49734727 20.14982929 2.56226999 23.26232936 2.625 26.375 C2.64779022 27.44482117 2.67058044 28.51464233 2.69406128 29.61688232 C3.29340067 59.08245791 2.64061903 88.54027346 2 118 C0.57354591 117.87324186 -0.85209693 117.73733587 -2.27734375 117.59765625 C-3.07132568 117.52297119 -3.86530762 117.44828613 -4.68334961 117.37133789 C-7.81805708 116.86887292 -10.28362347 115.60196564 -13 114 C-11 113 -11 113 0 115 C0 77.05 0 39.1 0 0 Z " fill="#E39DBF" transform="translate(206,117)"/>
<path d="M0 0 C0.33 0 0.66 0 1 0 C1.2475 1.11375 1.495 2.2275 1.75 3.375 C2.58449544 7.04876124 2.58449544 7.04876124 5.0625 8.25 C5.701875 8.4975 6.34125 8.745 7 9 C7.33 9.99 7.66 10.98 8 12 C10.31808364 13.03485877 12.65175298 14.0355414 15 15 C15.33 15.66 15.66 16.32 16 17 C17.32 17 18.64 17 20 17 C20 17.66 20 18.32 20 19 C20.99 19 21.98 19 23 19 C23.33 19.66 23.66 20.32 24 21 C33.69194492 24.00784498 42.67479049 22.95046651 52.1875 20.01171875 C54.48981829 18.7265885 55.0458765 17.41015571 56 15 C56.99 15.33 57.98 15.66 59 16 C56.98190863 19.94843964 55.38247727 22.23658435 51.1875 23.875 C38.56735969 27.40029539 24.35876605 25.3320737 13 19 C4.10656736 13.0292917 4.10656736 13.0292917 2 8 C1.34 8 0.68 8 0 8 C-0.98120464 4.94736336 -0.98120464 3.05263664 0 0 Z " fill="#E628BA" transform="translate(109,153)"/>
<path d="M0 0 C0.82638376 2.89234315 1 4.88742431 1 8 C1.845625 7.79375 2.69125 7.5875 3.5625 7.375 C7.53560946 6.94156988 10.24624618 7.7237237 14 9 C14 9.33 14 9.66 14 10 C0.022589 10.68929698 0.022589 10.68929698 -3.8125 8 C-4.534375 7.34 -5.25625 6.68 -6 6 C-6.33 6 -6.66 6 -7 6 C-5.68 7.65 -4.36 9.3 -3 11 C-3.66 11 -4.32 11 -5 11 C-5.33 11.66 -5.66 12.32 -6 13 C-9.3 10.03 -12.6 7.06 -16 4 C-10.93755221 -1.06244779 -6.88519863 -1.37703973 0 0 Z " fill="#E04A9C" transform="translate(134,74)"/>
<path d="M0 0 C1.125 4.75 1.125 4.75 0 7 C3.40605474 8.70302737 7.29224106 8.34779504 11.0546875 8.5234375 C14.2878395 9.0465735 15.47599966 10.02812474 18 12 C20.06583739 12.28635445 20.06583739 12.28635445 22.125 12.0625 C24.043125 12.0315625 24.043125 12.0315625 26 12 C26.66 12.66 27.32 13.32 28 14 C16.64107376 16.01936466 7.48266781 15.28600437 -3 10 C-4.875 8.51953125 -4.875 8.51953125 -6 7 C-6 4 -6 4 -4.125 1.8125 C-2 0 -2 0 0 0 Z " fill="#4F4083" transform="translate(55,176)"/>
<path d="M0 0 C4.94432028 4.94432028 4.05449282 12.89287256 4.11352539 19.43774414 C4.11336869 21.88688722 4.10781669 24.33603424 4.09765625 26.78515625 C4.0962413 28.08198837 4.09482635 29.3788205 4.09336853 30.71495056 C4.08958317 34.13270051 4.07978777 37.55040675 4.06866455 40.96813965 C4.05836397 44.46768605 4.05385254 47.96723963 4.04882812 51.46679688 C4.03816119 58.31121567 4.0211337 65.15560573 4 72 C3.67 72 3.34 72 3 72 C2.71186331 65.36561803 2.4274456 58.73108381 2.14550781 52.09643555 C2.04934169 49.84346989 1.95235124 47.59053925 1.85449219 45.33764648 C1.7132791 42.0832612 1.57511621 38.82875789 1.4375 35.57421875 C1.39375244 34.58105148 1.35000488 33.58788422 1.30493164 32.56462097 C1.06688959 26.85655103 0.99929791 21.19912828 1.17993164 15.48762512 C0.97524146 12.65770356 0.08476085 10.60647767 -1 8 C-1.1875 4.25 -1.1875 4.25 -1 1 C-0.67 0.67 -0.34 0.34 0 0 Z " fill="#DE6A6F" transform="translate(203,112)"/>
<path d="M0 0 C1.56919503 4.70758509 0.77306638 8.24975731 -1.18359375 12.6796875 C-2.41567709 15.14385418 -3.68115082 17.58129874 -5 20 C-5.66 19.67 -6.32 19.34 -7 19 C-6.34 17.02 -5.68 15.04 -5 13 C-6.27746094 13.32742187 -7.55492187 13.65484375 -8.87109375 13.9921875 C-13.98625438 15.12888986 -18.84320808 15.23027664 -24.0625 15.125 C-24.92810547 15.11597656 -25.79371094 15.10695312 -26.68554688 15.09765625 C-28.79048779 15.07439723 -30.89528342 15.03854008 -33 15 C-33 14.67 -33 14.34 -33 14 C-32.02160156 13.97421875 -31.04320312 13.9484375 -30.03515625 13.921875 C-18.57243552 13.42594608 -10.17631282 11.49339975 -2 3 C-1.34 2.01 -0.68 1.02 0 0 Z " fill="#E873AA" transform="translate(173,149)"/>
<path d="M0 0 C1.25361328 0.00322266 2.50722656 0.00644531 3.79882812 0.00976562 C5.76432617 0.02233398 5.76432617 0.02233398 7.76953125 0.03515625 C9.10481606 0.04017308 10.44010266 0.04473566 11.77539062 0.04882812 C15.04431598 0.0606293 18.31315116 0.07709328 21.58203125 0.09765625 C21.58203125 0.75765625 21.58203125 1.41765625 21.58203125 2.09765625 C21.00759277 2.07670898 20.4331543 2.05576172 19.84130859 2.03417969 C17.21339751 1.95051861 14.58576735 1.89884165 11.95703125 1.84765625 C11.05339844 1.81414062 10.14976563 1.780625 9.21875 1.74609375 C3.20415834 1.65828949 0.30704942 2.40487282 -4.41796875 6.09765625 C-5.40796875 6.09765625 -6.39796875 6.09765625 -7.41796875 6.09765625 C-7.41796875 6.75765625 -7.41796875 7.41765625 -7.41796875 8.09765625 C-8.65546875 8.13890625 -9.89296875 8.18015625 -11.16796875 8.22265625 C-12.21210937 8.25746094 -12.21210937 8.25746094 -13.27734375 8.29296875 C-15.7195285 8.07014167 -17.30433646 7.30680625 -19.41796875 6.09765625 C-17.81506345 5.28267063 -16.21059597 4.47075698 -14.60546875 3.66015625 C-13.71214844 3.20769531 -12.81882812 2.75523438 -11.8984375 2.2890625 C-7.71386462 0.27914954 -4.60567173 -0.02084014 0 0 Z " fill="#8C39B0" transform="translate(70.41796875,71.90234375)"/>
<path d="M0 0 C1.485 0.99 1.485 0.99 3 2 C3.99 2 4.98 2 6 2 C6.33 1.34 6.66 0.68 7 0 C6.125 7.625 6.125 7.625 5 11 C4.855625 11.94875 4.71125 12.8975 4.5625 13.875 C4.03126124 16.82632643 3.20607182 19.26623721 2 22 C1.34 22 0.68 22 0 22 C-0.33 22.99 -0.66 23.98 -1 25 C-1.0289337 21.20834926 -1.04677601 17.41672673 -1.0625 13.625 C-1.07087891 12.54476562 -1.07925781 11.46453125 -1.08789062 10.3515625 C-1.09111328 9.3203125 -1.09433594 8.2890625 -1.09765625 7.2265625 C-1.10289307 6.27346191 -1.10812988 5.32036133 -1.11352539 4.33837891 C-1 2 -1 2 0 0 Z " fill="#3B137F" transform="translate(48,100)"/>
<path d="M0 0 C0.66 0.66 1.32 1.32 2 2 C-10.87 1.505 -10.87 1.505 -24 1 C-24.33 1.66 -24.66 2.32 -25 3 C-25 2.01 -25 1.02 -25 0 C-29.62 0.33 -34.24 0.66 -39 1 C-39 0.34 -39 -0.32 -39 -1 C-26.55716765 -4.61973305 -12.25399246 -4.27419257 0 0 Z " fill="#E87275" transform="translate(169,73)"/>
<path d="M0 0 C2.47501493 2.19376324 4.5145793 4.02915861 6 7 C4.68 6.67 3.36 6.34 2 6 C1.67 8.64 1.34 11.28 1 14 C0.67 14 0.34 14 0 14 C0 12.35 0 10.7 0 9 C-0.99 8.67 -1.98 8.34 -3 8 C-3.66 9.32 -4.32 10.64 -5 12 C-5.33 10.35 -5.66 8.7 -6 7 C-6.66 8.98 -7.32 10.96 -8 13 C-8.33 13 -8.66 13 -9 13 C-9.33 11.02 -9.66 9.04 -10 7 C-10.66 7.66 -11.32 8.32 -12 9 C-11.125 3.25 -11.125 3.25 -10 1 C-6.31981709 -0.94231876 -3.93159535 -1.47434826 0 0 Z " fill="#F34887" transform="translate(100,106)"/>
<path d="M0 0 C3.48907779 -0.41047974 4.70002534 -0.23331363 7.53125 1.96875 C11.78668793 4.92825543 16.34781817 4.67111412 21.375 4.75 C22.30183594 4.77964844 23.22867188 4.80929688 24.18359375 4.83984375 C26.45581435 4.91011861 28.72703459 4.96302048 31 5 C31 5.33 31 5.66 31 6 C20.605 6.495 20.605 6.495 10 7 C10.66 8.65 11.32 10.3 12 12 C12.99 12.33 13.98 12.66 15 13 C15.33 13.99 15.66 14.98 16 16 C16.84304687 16.04898438 17.68609375 16.09796875 18.5546875 16.1484375 C19.65039062 16.22320312 20.74609375 16.29796875 21.875 16.375 C22.96554688 16.44460937 24.05609375 16.51421875 25.1796875 16.5859375 C28 17 28 17 30 19 C29.25234375 19.06058594 28.5046875 19.12117188 27.734375 19.18359375 C26.25710937 19.30927734 26.25710937 19.30927734 24.75 19.4375 C23.28820312 19.55931641 23.28820312 19.55931641 21.796875 19.68359375 C19.43538247 19.95074584 17.28098935 20.35371968 15 21 C13.46301977 19.09450404 11.94608746 17.17776407 10.4375 15.25 C9.78104492 14.44175781 9.78104492 14.44175781 9.11132812 13.6171875 C5.95016624 9.53505719 5.95016624 9.53505719 6.22265625 6.609375 C6.47917969 6.07828125 6.73570312 5.5471875 7 5 C4.702779 3.25728062 2.40133271 1.60088848 0 0 Z " fill="#A92D9B" transform="translate(123,79)"/>
<path d="M0 0 C4.55700425 0.52484692 7.192874 2.31507303 10.8125 5.0625 C11.78832031 5.79597656 12.76414063 6.52945313 13.76953125 7.28515625 C14.87361328 8.13400391 14.87361328 8.13400391 16 9 C15.82597656 9.61359375 15.65195313 10.2271875 15.47265625 10.859375 C14.93994607 13.2719798 15.25276496 14.67526878 16 17 C14.824375 16.01 14.824375 16.01 13.625 15 C11.28487188 12.79798559 11.28487188 12.79798559 9 13 C9 14.32 9 15.64 9 17 C4.25 16.125 4.25 16.125 2 15 C2 14.34 2 13.68 2 13 C2.99 13 3.98 13 5 13 C5.11320856 7.91696314 5.11320856 7.91696314 4 3 C2.00334686 1.31461399 2.00334686 1.31461399 0 0 Z " fill="#F6855D" transform="translate(171,75)"/>
<path d="M0 0 C2 2 2 2 2.24050903 4.13870239 C2.23606781 5.0225058 2.23162659 5.9063092 2.22705078 6.81689453 C2.22689972 7.81778107 2.22674866 8.8186676 2.22659302 9.84988403 C2.21627045 10.93325043 2.20594788 12.01661682 2.1953125 13.1328125 C2.1924826 14.23978485 2.18965271 15.3467572 2.18673706 16.48727417 C2.17551519 20.03329137 2.15040691 23.57905875 2.125 27.125 C2.1149728 29.52473594 2.1058465 31.92447583 2.09765625 34.32421875 C2.07556932 40.21623151 2.04207207 46.10809791 2 52 C-0.85463687 49.56953215 -0.98445246 49.1687866 -1.35644531 45.13037109 C-1.36274268 43.51137795 -1.35217038 41.89226432 -1.328125 40.2734375 C-1.32625183 39.41118561 -1.32437866 38.54893372 -1.32244873 37.66055298 C-1.31572375 35.83307031 -1.30180039 34.00560215 -1.28125 32.17822266 C-1.25035045 29.40643644 -1.24030112 26.63522197 -1.234375 23.86328125 C-1.22519326 22.08332653 -1.2148138 20.30337752 -1.203125 18.5234375 C-1.19887512 17.70434906 -1.19462524 16.88526062 -1.19024658 16.04135132 C-1.1244992 10.6319403 -0.67001405 5.36884003 0 0 Z " fill="#B52796" transform="translate(205,182)"/>
<path d="M0 0 C2.70543435 2.70543435 2.66259799 4.80263748 3.3125 8.5625 C4.54001775 15.28163146 6.27952358 21.74984246 8.28637695 28.27563477 C9.37792281 31.83133159 10.35812477 35.33417924 11 39 C9.125 38.5 9.125 38.5 7 37 C6.29490764 34.9707098 5.8728769 32.98821463 5.4921875 30.875 C5.10876847 28.77250014 5.10876847 28.77250014 3 27 C0.36008732 24.36008732 0.69759203 23.02053704 0.5859375 19.3359375 C0.54726562 18.21445313 0.50859375 17.09296875 0.46875 15.9375 C0.4378125 14.761875 0.406875 13.58625 0.375 12.375 C0.33632812 11.19164062 0.29765625 10.00828125 0.2578125 8.7890625 C0.16331155 5.85953309 0.07775442 2.93001403 0 0 Z " fill="#E42DB6" transform="translate(97,117)"/>
<path d="M0 0 C0.33 1.32 0.66 2.64 1 4 C1.66 4 2.32 4 3 4 C2.814375 5.299375 2.62875 6.59875 2.4375 7.9375 C1.94919695 12.16500039 2.19286547 15.95857639 2.84375 20.15234375 C3 22 3 22 2 24 C2.99 24 3.98 24 5 24 C4.938125 25.175625 4.87625 26.35125 4.8125 27.5625 C4.80477122 31.95244909 6.11929992 35.02159598 8 39 C8.74989986 41.3178723 9.37494665 43.6440297 10 46 C3.50802771 40.77035566 1.35430448 33.02075776 0 25 C-0.07869838 23.01561604 -0.10784044 21.02888652 -0.09765625 19.04296875 C-0.09443359 17.93115234 -0.09121094 16.81933594 -0.08789062 15.67382812 C-0.07951172 14.52333984 -0.07113281 13.37285156 -0.0625 12.1875 C-0.05798828 11.01767578 -0.05347656 9.84785156 -0.04882812 8.64257812 C-0.0370693 5.76166642 -0.02063426 2.88085956 0 0 Z " fill="#CB1BA9" transform="translate(193,183)"/>
<path d="M0 0 C0.33 0 0.66 0 1 0 C1.1986449 4.4787443 1.38189278 8.95799493 1.5625 13.4375 C1.61857422 14.69755859 1.67464844 15.95761719 1.73242188 17.25585938 C1.99564511 23.97682588 1.97812006 30.34153823 1 37 C0.67 35.68 0.34 34.36 0 33 C-0.99 33 -1.98 33 -3 33 C-3.48991935 6.97983871 -3.48991935 6.97983871 0 0 Z " fill="#9334B2" transform="translate(46,54)"/>
<path d="M0 0 C-1.75 5.75 -1.75 5.75 -4 8 C-5.32 8 -6.64 8 -8 8 C-8 7.01 -8 6.02 -8 5 C-12.58779477 4.82548903 -12.58779477 4.82548903 -17.0625 5.625 C-20.01021383 6.19552526 -22.2002054 4.9881628 -25 4 C-27.32694964 3.62468554 -29.65976685 3.28082798 -32 3 C-32 2.34 -32 1.68 -32 1 C-31.33991943 1.00523682 -30.67983887 1.01047363 -29.99975586 1.01586914 C-26.97901378 1.03678951 -23.958287 1.0497078 -20.9375 1.0625 C-19.37999023 1.07506836 -19.37999023 1.07506836 -17.79101562 1.08789062 C-11.80382425 1.10689758 -5.90634961 0 0 0 Z " fill="#EB3C94" transform="translate(168,162)"/>
<path d="M0 0 C3.6279345 1.66688883 4.88012047 2.76880376 6.75 6.375 C8.53296518 11.54559901 9.14181114 16.15094844 9.31640625 21.61328125 C9.37924805 23.4840332 9.37924805 23.4840332 9.44335938 25.39257812 C9.48267578 26.68615234 9.52199219 27.97972656 9.5625 29.3125 C9.60568359 30.62541016 9.64886719 31.93832031 9.69335938 33.29101562 C9.79927227 36.52724288 9.90134885 39.76354458 10 43 C9.34 43 8.68 43 8 43 C7.67 34.75 7.34 26.5 7 18 C6.67 19.65 6.34 21.3 6 23 C5.67 23 5.34 23 5 23 C4.80664062 22.09378906 4.61328125 21.18757813 4.4140625 20.25390625 C2.96959136 13.49635562 1.511343 6.74291493 0 0 Z " fill="#C372CF" transform="translate(39,38)"/>
<path d="M0 0 C0.66 0.99 1.32 1.98 2 3 C2.66 3.66 3.32 4.32 4 5 C7.25082106 9.87623159 7.13867506 14.08165051 7.09765625 19.828125 C7.0962413 20.57713074 7.09482635 21.32613647 7.09336853 22.09783936 C7.08778659 24.48193412 7.07523745 26.86593378 7.0625 29.25 C7.05748266 30.86979031 7.05292016 32.48958209 7.04882812 34.109375 C7.03782308 38.07295312 7.02057091 42.03646045 7 46 C6.67 46 6.34 46 6 46 C5.19895973 38.10852476 4.73354927 30.23788468 4.4375 22.3125 C4.39431641 21.21744141 4.35113281 20.12238281 4.30664062 18.99414062 C4.20191731 16.32951403 4.09974221 13.66481689 4 11 C2.68 10.67 1.36 10.34 0 10 C0.020625 9.071875 0.04125 8.14375 0.0625 7.1875 C0.15769604 3.97713989 0.15769604 3.97713989 -1 1 C-0.67 0.67 -0.34 0.34 0 0 Z " fill="#DC2B94" transform="translate(186,110)"/>
<path d="M0 0 C0.33 0 0.66 0 1 0 C1.41900446 11.12689611 1.62561779 20.65431021 -3 31 C-3.33 30.01 -3.66 29.02 -4 28 C-6.00016466 26.79117904 -6.00016466 26.79117904 -8 26 C-7.34 24.02 -6.68 22.04 -6 20 C-5.01 20.33 -4.02 20.66 -3 21 C-3.02320313 20.39671875 -3.04640625 19.7934375 -3.0703125 19.171875 C-3.08835938 18.37265625 -3.10640625 17.5734375 -3.125 16.75 C-3.14820313 15.96109375 -3.17140625 15.1721875 -3.1953125 14.359375 C-2.97998763 11.75825063 -2.19969014 10.29031754 -1 8 C-0.55499715 5.87406942 -0.55499715 5.87406942 -0.375 3.75 C-0.189375 1.89375 -0.189375 1.89375 0 0 Z " fill="#9B49B8" transform="translate(140,126)"/>
<path d="M0 0 C5.47368421 10.52631579 5.47368421 10.52631579 5 17 C5.99 17.33 6.98 17.66 8 18 C9.359375 19.8203125 9.359375 19.8203125 10.75 22.125 C13.66390051 26.7008488 17.01964387 30.33760132 21 34 C20.34 34.66 19.68 35.32 19 36 C9.59170817 27.2610728 1.86052033 17.84274989 -1 5 C-0.59765625 2.17578125 -0.59765625 2.17578125 0 0 Z " fill="#BB6EC8" transform="translate(88,142)"/>
<path d="M0 0 C10.75349236 0.68639313 18.84588719 7.33661136 26 15 C29.67697865 19.94233567 32.66856008 24.70264147 33 31 C29.87789466 26.86981676 26.86446399 22.66273768 23.83984375 18.4609375 C22.07984937 15.98456176 22.07984937 15.98456176 20 14 C19.71125 13.360625 19.4225 12.72125 19.125 12.0625 C16.54904057 7.33990771 11.77647192 5.94297163 7 4 C5.68631316 3.4402774 4.37376118 2.87788184 3.0625 2.3125 C2.051875 1.879375 1.04125 1.44625 0 1 C0 0.67 0 0.34 0 0 Z " fill="#BC2284" transform="translate(157,86)"/>
<path d="M0 0 C1.66796875 1.875 1.66796875 1.875 3.1875 4 C3.69667969 4.70125 4.20585938 5.4025 4.73046875 6.125 C6 8 6 8 7 10 C1.25 12 1.25 12 -1 12 C-2.125 4.25 -2.125 4.25 -1 2 C-1.763125 2.20625 -2.52625 2.4125 -3.3125 2.625 C-6 3 -6 3 -9 1 C-9.99 1.33 -10.98 1.66 -12 2 C-12.66 1.67 -13.32 1.34 -14 1 C-14 0.34 -14 -0.32 -14 -1 C-12.41870971 -1.22331199 -10.83478911 -1.42804644 -9.25 -1.625 C-8.36828125 -1.74101562 -7.4865625 -1.85703125 -6.578125 -1.9765625 C-3.66379686 -2.00305639 -2.39521762 -1.63014811 0 0 Z " fill="#401A8B" transform="translate(89,166)"/>
<path d="M0 0 C1.99197816 2.98796724 2.9492249 5.48014588 4.0625 8.875 C4.40410156 9.90367188 4.74570313 10.93234375 5.09765625 11.9921875 C6.70866114 17.3622038 7.13211107 22.21684084 7.0625 27.8125 C7.05798828 28.50537109 7.05347656 29.19824219 7.04882812 29.91210938 C7.03713156 31.60811068 7.01919924 33.30406703 7 35 C6.67 35 6.34 35 6 35 C5.67 33.35 5.34 31.7 5 30 C4.34 30 3.68 30 3 30 C3.01160156 29.14535156 3.02320313 28.29070312 3.03515625 27.41015625 C3.04417969 26.30542969 3.05320313 25.20070312 3.0625 24.0625 C3.07410156 22.96035156 3.08570313 21.85820313 3.09765625 20.72265625 C3.31262571 18.08552366 3.31262571 18.08552366 2 17 C1.6515437 15.44512357 1.34609995 13.88050305 1.0625 12.3125 C0.31805415 8.41115596 -0.62365132 4.73580357 -2 1 C-1.34 0.67 -0.68 0.34 0 0 Z " fill="#CB74D3" transform="translate(135,104)"/>
<path d="M0 0 C-0.33 1.32 -0.66 2.64 -1 4 C-0.34 4 0.32 4 1 4 C1 5.32 1 6.64 1 8 C0.01 8 -0.98 8 -2 8 C-2 12.95 -2 17.9 -2 23 C-2.66 23 -3.32 23 -4 23 C-4.33 23.99 -4.66 24.98 -5 26 C-4.98839844 25.21496094 -4.97679687 24.42992187 -4.96484375 23.62109375 C-4.85750444 16.78421209 -4.85750444 16.78421209 -5.5625 10 C-5.97962814 7.13969274 -5.77180084 5.70130296 -5 3 C-5.33 2.01 -5.66 1.02 -6 0 C-3.50907189 -1.24546405 -2.58919267 -0.7767578 0 0 Z " fill="#CF3AB1" transform="translate(183,113)"/>
<path d="M0 0 C0.33 0 0.66 0 1 0 C1.02578125 1.22074219 1.0515625 2.44148437 1.078125 3.69921875 C1.36144045 12.82104722 2.08768798 20.66776963 5.14453125 29.30859375 C6.23595142 32.74233118 6.3312618 35.43893564 6 39 C6.99 39.33 7.98 39.66 9 40 C7.515 40.495 7.515 40.495 6 41 C3.3125 39.5625 3.3125 39.5625 1 38 C1.5878125 36.9790625 1.5878125 36.9790625 2.1875 35.9375 C3.37073603 32.94148556 3.37073603 32.94148556 1.5625 30.15625 C-0.99166237 24.59237326 -0.31497409 18.55378207 -0.1875 12.5625 C-0.16719727 10.74975586 -0.16719727 10.74975586 -0.14648438 8.90039062 C-0.11129946 5.93312918 -0.06206696 2.96680063 0 0 Z " fill="#F133AD" transform="translate(192,189)"/>
<path d="M0 0 C0 0.66 0 1.32 0 2 C-8.2972756 6.58890141 -15.56409727 7.84847455 -25 8 C-23.68 7.67 -22.36 7.34 -21 7 C-21 6.34 -21 5.68 -21 5 C-18.06746654 3.96448955 -15.12833062 2.94918162 -12.1875 1.9375 C-11.35412109 1.64294922 -10.52074219 1.34839844 -9.66210938 1.04492188 C-8.85966797 0.77099609 -8.05722656 0.49707031 -7.23046875 0.21484375 C-6.49207764 -0.04176025 -5.75368652 -0.29836426 -4.99291992 -0.56274414 C-3 -1 -3 -1 0 0 Z " fill="#AE56B0" transform="translate(177,183)"/>
<path d="M0 0 C0.33 0.66 0.66 1.32 1 2 C1.66 2.33 2.32 2.66 3 3 C2.835 3.9075 2.67 4.815 2.5 5.75 C1.53404549 12.69107314 1.80943956 19.70210766 2.33203125 26.671875 C2.38955566 27.47971436 2.44708008 28.28755371 2.50634766 29.11987305 C2.62570332 30.72924427 2.75915905 32.33764116 2.90771484 33.94458008 C3.07421875 36.19140625 3.07421875 36.19140625 3 40 C2.01 40.99 1.02 41.98 0 43 C0 28.81 0 14.62 0 0 Z " fill="#7B2BB5" transform="translate(21,30)"/>
<path d="M0 0 C0.99 0.66 1.98 1.32 3 2 C3.1875 4.625 3.1875 4.625 3 7 C1.02 7.99 1.02 7.99 -1 9 C-6.75 5.25 -6.75 5.25 -9 3 C-8.67 2.01 -8.34 1.02 -8 0 C-4.65649854 -1.11450049 -3.33342063 -0.91669067 0 0 Z " fill="#6430A6" transform="translate(133,152)"/>
<path d="M0 0 C3.94949704 0.62816498 7.19892028 1.8645529 10.8125 3.5625 C12.27623047 4.24505859 12.27623047 4.24505859 13.76953125 4.94140625 C14.87361328 5.46541016 14.87361328 5.46541016 16 6 C16 6.99 16 7.98 16 9 C16.99 9.33 17.98 9.66 19 10 C19.33 12.31 19.66 14.62 20 17 C19.34 16.319375 18.68 15.63875 18 14.9375 C12.45005201 9.41890764 6.96692014 4.62860424 0 1 C0 0.67 0 0.34 0 0 Z " fill="#F9777A" transform="translate(165,87)"/>
<path d="M0 0 C3.47463803 4.31527626 4.25100916 7.91065643 3.796875 13.5 C3.59992603 15.24144355 3.3981496 16.98234831 3.19140625 18.72265625 C2.97085055 21.34681899 3.40974646 23.44223466 4 26 C4.09189346 29.00185316 4.05886967 31.99764702 4 35 C3.34 35 2.68 35 2 35 C1.05747447 30.95820902 0.80704506 27.09365556 0.68359375 22.94921875 C0.66281265 22.29041214 0.64203156 21.63160553 0.62062073 20.95283508 C0.55564511 18.86448815 0.49648425 16.77602388 0.4375 14.6875 C0.39426521 13.2649622 0.3506494 11.84243594 0.30664062 10.41992188 C0.20001784 6.94673703 0.09860652 3.47342274 0 0 Z " fill="#FD5E8D" transform="translate(193,122)"/>
<path d="M0 0 C1.76227952 2.64341928 3.19871008 5.23077235 4.625 8.0625 C5.07101563 8.94035156 5.51703125 9.81820312 5.9765625 10.72265625 C7 13 7 13 7 15 C7.556875 15.2475 8.11375 15.495 8.6875 15.75 C11 17 11 17 13.125 18.9375 C17.0977381 21.78750777 21.30507856 22.79664149 26 24 C22.28125 26.078125 22.28125 26.078125 19.75 25.375 C18.38875 24.694375 18.38875 24.694375 17 24 C16.30777344 23.6596875 15.61554688 23.319375 14.90234375 22.96875 C12.92728829 21.99341397 10.96133725 21.00256941 9 20 C9 19.01 9 18.02 9 17 C8.01 16.67 7.02 16.34 6 16 C1.44483288 10.79409472 0.17131486 6.86816851 0 0 Z " fill="#D132B3" transform="translate(114,138)"/>
<path d="M0 0 C0.33 0 0.66 0 1 0 C1.05441656 1.89551022 1.09298035 3.7914792 1.125 5.6875 C1.14820313 6.74324219 1.17140625 7.79898438 1.1953125 8.88671875 C0.85105606 14.37416638 -0.95912364 17.36321128 -5 21 C-6.51479174 15.44287829 -5.29458096 12.16549793 -3.0625 7.125 C-2.77181641 6.43664062 -2.48113281 5.74828125 -2.18164062 5.0390625 C-1.46769861 3.35369119 -0.73565263 1.6760086 0 0 Z " fill="#8B257E" transform="translate(179,136)"/>
<path d="M0 0 C0 0.33 0 0.66 0 1 C-6.93 0.505 -6.93 0.505 -14 0 C-14 -0.99 -14 -1.98 -14 -3 C-21.59 -3 -29.18 -3 -37 -3 C-37 -3.33 -37 -3.66 -37 -4 C-24.33474387 -6.20265324 -11.87429634 -5.02374076 0 0 Z " fill="#CE87CF" transform="translate(106,75)"/>
<path d="M0 0 C0.33 0 0.66 0 1 0 C1.2475 1.11375 1.495 2.2275 1.75 3.375 C2.58449544 7.04876124 2.58449544 7.04876124 5.0625 8.25 C5.701875 8.4975 6.34125 8.745 7 9 C7.33 9.99 7.66 10.98 8 12 C11.50294871 13.71567661 11.50294871 13.71567661 15 15 C15 16.32 15 17.64 15 19 C16.32 19.33 17.64 19.66 19 20 C18.01 20.33 17.02 20.66 16 21 C13.40625 19.453125 13.40625 19.453125 10.5 17.25 C9.5409375 16.53328125 8.581875 15.8165625 7.59375 15.078125 C3.5926087 11.8723913 3.5926087 11.8723913 2 10 C2 9.34 2 8.68 2 8 C1.34 8 0.68 8 0 8 C-0.98120464 4.94736336 -0.98120464 3.05263664 0 0 Z " fill="#DD24BE" transform="translate(109,153)"/>
<path d="M0 0 C0.33 0 0.66 0 1 0 C2.29759425 6.00660562 2.2207076 12.01021225 2.25 18.125 C2.270625 19.20910156 2.29125 20.29320312 2.3125 21.41015625 C2.32023438 22.97443359 2.32023438 22.97443359 2.328125 24.5703125 C2.3374707 25.51664551 2.34681641 26.46297852 2.35644531 27.43798828 C2 30 2 30 -1 34 C-1 25.09 -1 16.18 -1 7 C-1.66 6.67 -2.32 6.34 -3 6 C-2.34 5.34 -1.68 4.68 -1 4 C-0.3574765 1.93125966 -0.3574765 1.93125966 0 0 Z " fill="#ED77C4" transform="translate(180,177)"/>
<path d="M0 0 C4.49078671 1.37218483 6.29031652 3.21916962 9 7 C13.9061966 16.70659921 15.19443142 25.263065 15 36 C12.6948832 32.5423248 12.8096722 31.19265496 12.75 27.125 C12.06906381 16.421161 7.42259669 7.59932518 0 0 Z " fill="#8E28A4" transform="translate(101,105)"/>
<path d="M0 0 C3.49063416 1.16354472 3.89092253 2.31430281 5.76171875 5.3046875 C8.64320762 9.24969119 12.37275478 12.45758493 17 14 C17 14.66 17 15.32 17 16 C17.99 15.34 18.98 14.68 20 14 C20.99 14.33 21.98 14.66 23 15 C22.34 15 21.68 15 21 15 C21.33 16.65 21.66 18.3 22 20 C20.20249935 19.43489946 18.41208377 18.84722594 16.625 18.25 C15.62726563 17.92515625 14.62953125 17.6003125 13.6015625 17.265625 C10.58628922 15.79873529 10.25296876 14.99696583 9 12 C7.87462904 10.81358298 6.70500791 9.66794158 5.5 8.5625 C2.73959426 5.89965538 1.03202302 3.78408439 0 0 Z " fill="#A633CC" transform="translate(97,162)"/>
<path d="M0 0 C3.96 1.98 3.96 1.98 8 4 C8 4.99 8 5.98 8 7 C10.64 7.33 13.28 7.66 16 8 C15.34 7.67 14.68 7.34 14 7 C14.33 5.68 14.66 4.36 15 3 C16.98 5.64 18.96 8.28 21 11 C12.39265046 10.31141204 7.3102732 9.657706 1.13671875 3.4375 C0 2 0 2 0 0 Z " fill="#E03AA0" transform="translate(184,221)"/>
<path d="M0 0 C0 0.66 0 1.32 0 2 C0.66 2.33 1.32 2.66 2 3 C0.02 3.33 -1.96 3.66 -4 4 C-4 4.66 -4 5.32 -4 6 C-3.236875 6.0825 -2.47375 6.165 -1.6875 6.25 C1.52373261 7.14615794 2.29374499 8.21611025 4 11 C3.34 11 2.68 11 2 11 C1.67 11.66 1.34 12.32 1 13 C-2.3 10.03 -5.6 7.06 -9 4 C-5.73092573 0.73092573 -4.54139841 0 0 0 Z " fill="#B965A2" transform="translate(127,74)"/>
<path d="M0 0 C0.33 0 0.66 0 1 0 C1.36692116 2.49870275 1.7187099 4.99809525 2.0625 7.5 C2.16626953 8.19609375 2.27003906 8.8921875 2.37695312 9.609375 C2.87713002 13.33483047 3.02543841 16.63891655 2.49609375 20.37109375 C1.96136023 24.28264839 2.55654873 25.48158754 4 29 C3.625 32.8125 3.625 32.8125 3 36 C0.04532356 30.87856083 -0.12637979 25.52871821 -0.09765625 19.7265625 C-0.09443359 18.57285156 -0.09121094 17.41914063 -0.08789062 16.23046875 C-0.07951172 15.04066406 -0.07113281 13.85085937 -0.0625 12.625 C-0.05798828 11.41199219 -0.05347656 10.19898438 -0.04882812 8.94921875 C-0.03708354 5.96609493 -0.0206584 2.98307321 0 0 Z " fill="#EF33B0" transform="translate(180,151)"/>
<path d="M0 0 C0 0.66 0 1.32 0 2 C-0.95261719 2.06058594 -1.90523437 2.12117188 -2.88671875 2.18359375 C-4.14097656 2.26738281 -5.39523438 2.35117188 -6.6875 2.4375 C-7.92886719 2.51871094 -9.17023438 2.59992188 -10.44921875 2.68359375 C-13.38771551 2.94544 -16.11928775 3.40807283 -19 4 C-21.33301986 4.03824623 -23.66711508 4.04574284 -26 4 C-26 3.34 -26 2.68 -26 2 C-17.35975438 -0.513526 -8.91189982 -0.18417244 0 0 Z " fill="#E095A7" transform="translate(156,70)"/>
<path d="M0 0 C0.33 0 0.66 0 1 0 C1.01981934 0.71542969 1.03963867 1.43085937 1.06005859 2.16796875 C1.15599327 5.4456486 1.26539298 8.72275001 1.375 12 C1.42140625 13.68802734 1.42140625 13.68802734 1.46875 15.41015625 C1.6849137 21.57082174 2.21877091 27.09153277 4 33 C2.02 33.495 2.02 33.495 0 34 C-1.19583104 30.41250689 -1.01782444 27.707443 -0.87890625 23.92578125 C-0.85529526 23.2419487 -0.83168427 22.55811615 -0.80735779 21.8535614 C-0.7308855 19.67298774 -0.64679119 17.49278405 -0.5625 15.3125 C-0.50926281 13.8327003 -0.45652252 12.35288262 -0.40429688 10.87304688 C-0.27529303 7.24847183 -0.13945273 3.62418977 0 0 Z " fill="#422D7E" transform="translate(21,114)"/>
<path d="M0 0 C2.27076842 -0.02699725 4.54162821 -0.04639453 6.8125 -0.0625 C8.07707031 -0.07410156 9.34164062 -0.08570312 10.64453125 -0.09765625 C14 0 14 0 17 1 C16.67 1.99 16.34 2.98 16 4 C15.01 4 14.02 4 13 4 C13 3.34 13 2.68 13 2 C12.01 2.33 11.02 2.66 10 3 C9.01 2.67 8.02 2.34 7 2 C7 2.66 7 3.32 7 4 C4.03 4 1.06 4 -2 4 C-1.34 2.68 -0.68 1.36 0 0 Z " fill="#B32EC4" transform="translate(78,74)"/>
<path d="M0 0 C0.33 0 0.66 0 1 0 C1.14301152 6.0506046 1.28541179 12.10122316 1.42724609 18.15185547 C1.47558062 20.21012765 1.52408205 22.26839592 1.57275391 24.32666016 C1.64269205 27.28547163 1.71202956 30.24429666 1.78125 33.203125 C1.80312378 34.12305237 1.82499756 35.04297974 1.84753418 35.99078369 C1.86755493 36.8513739 1.88757568 37.71196411 1.90820312 38.59863281 C1.93485046 39.73114471 1.93485046 39.73114471 1.96203613 40.88653564 C1.99863604 42.92406769 2 44.96213926 2 47 C-0.39659947 44.60340053 -0.26562211 44.02352377 -0.3347168 40.74975586 C-0.35781418 39.87222153 -0.38091156 38.99468719 -0.40470886 38.09056091 C-0.41939713 37.14157425 -0.43408539 36.19258759 -0.44921875 35.21484375 C-0.47095657 34.24341934 -0.4926944 33.27199493 -0.51509094 32.27113342 C-0.55904452 30.21592432 -0.59823594 28.16060873 -0.63305664 26.10522461 C-0.68734082 22.94676167 -0.7574925 19.7889493 -0.83007812 16.63085938 C-0.87072953 14.63803974 -0.910474 12.64520136 -0.94921875 10.65234375 C-0.96997971 9.70133286 -0.99074066 8.75032196 -1.01213074 7.77049255 C-1.02577164 6.89611038 -1.03941254 6.02172821 -1.0534668 5.12084961 C-1.06741989 4.34744736 -1.08137299 3.5740451 -1.0957489 2.77720642 C-1 1 -1 1 0 0 Z " fill="#7228BB" transform="translate(33,74)"/>
<path d="M0 0 C5.84193892 5.30632405 9.36112753 13.12057282 10 21 C5.73100875 17.4232776 4.16511032 14.44021256 2.67578125 9.0859375 C2.01750772 6.73239588 2.01750772 6.73239588 0 4 C0 2.68 0 1.36 0 0 Z " fill="#E9A68C" transform="translate(196,95)"/>
<path d="M0 0 C0.22042969 0.93199219 0.22042969 0.93199219 0.4453125 1.8828125 C0.93314158 4.00304206 0.93314158 4.00304206 1.875 5.875 C2 8 2 8 -0.375 11.0625 C-1.24125 12.031875 -2.1075 13.00125 -3 14 C-3.33 14.99 -3.66 15.98 -4 17 C-5.32 16.67 -6.64 16.34 -8 16 C-5.33333333 10.66666667 -2.66666667 5.33333333 0 0 Z " fill="#AF169B" transform="translate(172,159)"/>
<path d="M0 0 C2.475 0.495 2.475 0.495 5 1 C5 1.66 5 2.32 5 3 C6.65 3.33 8.3 3.66 10 4 C10 4.66 10 5.32 10 6 C10.639375 6.2475 11.27875 6.495 11.9375 6.75 C14 8 14 8 14.75 10.125 C14.87375 11.053125 14.87375 11.053125 15 12 C11.80024884 10.53162104 9.15165744 8.72160654 6.375 6.5625 C5.59898438 5.96566406 4.82296875 5.36882812 4.0234375 4.75390625 C2 3 2 3 0 0 Z " fill="#5C4E88" transform="translate(35,172)"/>
<path d="M0 0 C0.33 0 0.66 0 1 0 C0.938125 0.94875 0.87625 1.8975 0.8125 2.875 C0.874375 3.90625 0.93625 4.9375 1 6 C1.99 6.66 2.98 7.32 4 8 C3.82374165 10.37948772 3.30280227 11.70225849 1.59765625 13.37890625 C0.09350908 14.62115486 -1.45129851 15.81376056 -3 17 C-3.625 15.25 -3.625 15.25 -4 13 C-3.34241884 11.66216247 -2.67436253 10.32945756 -2 9 C-1.57848115 7.42841122 -1.2031166 5.84370918 -0.875 4.25 C-0.70742188 3.45078125 -0.53984375 2.6515625 -0.3671875 1.828125 C-0.24601562 1.22484375 -0.12484375 0.6215625 0 0 Z " fill="#703DB0" transform="translate(56,96)"/>
<path d="M0 0 C0.33 0 0.66 0 1 0 C1.05498128 1.37453198 1.09322822 2.74973578 1.125 4.125 C1.14820312 4.89070313 1.17140625 5.65640625 1.1953125 6.4453125 C1 9 1 9 0.03125 11.78125 C-1.22197157 15.69282034 -1.4479384 19.2952057 -1.625 23.375 C-1.66367188 24.11105469 -1.70234375 24.84710938 -1.7421875 25.60546875 C-1.83557998 27.40327406 -1.9188371 29.20160108 -2 31 C-2.33 31 -2.66 31 -3 31 C-3.05455703 28.02058002 -3.09393851 25.04218469 -3.125 22.0625 C-3.14175781 21.23169922 -3.15851563 20.40089844 -3.17578125 19.54492188 C-3.22930845 12.66667701 -2.17305325 6.51915974 0 0 Z " fill="#B534A2" transform="translate(90,110)"/>
<path d="M0 0 C0.33 0 0.66 0 1 0 C1 3.96 1 7.92 1 12 C-0.32 12.33 -1.64 12.66 -3 13 C-3.99 14.485 -3.99 14.485 -5 16 C-5.66 15.67 -6.32 15.34 -7 15 C-6.67 12.69 -6.34 10.38 -6 8 C-5.34 8 -4.68 8 -4 8 C-1.73603877 5.46436342 -0.59687434 3.34249629 0 0 Z " fill="#A10890" transform="translate(179,148)"/>
<path d="M0 0 C1.22855311 3.68565932 0.39009675 4.52475813 -1 8 C-0.67 8.99 -0.34 9.98 0 11 C-0.66 11 -1.32 11 -2 11 C-3.76462683 7.91190305 -4 6.76687864 -4 3 C-5.32 2.67 -6.64 2.34 -8 2 C-8 1.34 -8 0.68 -8 0 C-4.71023192 -1.09658936 -3.28696233 -0.79953138 0 0 Z " fill="#A73EBC" transform="translate(30,30)"/>
<path d="M0 0 C1.485 0.99 1.485 0.99 3 2 C3.68449219 2.2784375 4.36898438 2.556875 5.07421875 2.84375 C7.62665254 4.37624575 7.95900662 5.68849239 8.8125 8.5 C9.06644531 9.2940625 9.32039063 10.088125 9.58203125 10.90625 C10 13 10 13 9 15 C3.42857143 8.71428571 3.42857143 8.71428571 3 5 C2.34 5 1.68 5 1 5 C0.67 3.35 0.34 1.7 0 0 Z " fill="#66578E" transform="translate(25,157)"/>
<path d="M0 0 C0.7425 0.45375 1.485 0.9075 2.25 1.375 C5.13336161 3.07880459 5.98651352 3.17247964 9.1875 3.0625 C10.445625 3.041875 11.70375 3.02125 13 3 C13.66 3.66 14.32 4.32 15 5 C12.72979256 5.19493195 10.45879711 5.38070418 8.1875 5.5625 C6.92292969 5.66691406 5.65835938 5.77132812 4.35546875 5.87890625 C1 6 1 6 -2 5 C-2 4.34 -2 3.68 -2 3 C-2.66 2.67 -3.32 2.34 -4 2 C-2.3125 0.8125 -2.3125 0.8125 0 0 Z " fill="#2C1771" transform="translate(68,185)"/>
<path d="M0 0 C0.97646484 0.00322266 1.95292969 0.00644531 2.95898438 0.00976562 C3.96638672 0.01814453 4.97378906 0.02652344 6.01171875 0.03515625 C7.03845703 0.03966797 8.06519531 0.04417969 9.12304688 0.04882812 C11.64849757 0.06057441 14.1738278 0.0770006 16.69921875 0.09765625 C8.74016442 4.38578662 -1.59335033 3.44880932 -10.30078125 2.09765625 C-10.30078125 1.76765625 -10.30078125 1.43765625 -10.30078125 1.09765625 C-6.80085429 0.30058857 -3.58655815 -0.02097402 0 0 Z " fill="#BF78CA" transform="translate(146.30078125,189.90234375)"/>
<path d="M0 0 C1.32 0 2.64 0 4 0 C4.3152595 5.98993047 3.68219822 9.63560356 1 15 C0.67 15 0.34 15 0 15 C-0.19390729 12.68802845 -0.37996367 10.3753971 -0.5625 8.0625 C-0.71912109 6.13083984 -0.71912109 6.13083984 -0.87890625 4.16015625 C-0.91886719 3.11730469 -0.95882812 2.07445313 -1 1 C-0.67 0.67 -0.34 0.34 0 0 Z " fill="#311271" transform="translate(49,107)"/>
<path d="M0 0 C1.56919503 4.70758509 0.77306638 8.24975731 -1.18359375 12.6796875 C-2.41567709 15.14385418 -3.68115082 17.58129874 -5 20 C-5.66 19.67 -6.32 19.34 -7 19 C-6.36 15.288 -6.36 15.288 -4.4375 13.75 C-2.3788885 11.24386426 -2.95644683 9.04789054 -3.09375 5.94140625 C-2.96366755 3.24761558 -1.8714184 1.8714184 0 0 Z " fill="#EA5BAB" transform="translate(173,149)"/>
<path d="M0 0 C3.48907779 -0.41047974 4.70002534 -0.23331363 7.53125 1.96875 C11.78668793 4.92825543 16.34781817 4.67111412 21.375 4.75 C22.30183594 4.77964844 23.22867188 4.80929688 24.18359375 4.83984375 C26.45581435 4.91011861 28.72703459 4.96302048 31 5 C31 5.33 31 5.66 31 6 C23.08 6.33 15.16 6.66 7 7 C6.34 5.68 5.68 4.36 5 3 C2.46229997 1.71745356 2.46229997 1.71745356 0 1 C0 0.67 0 0.34 0 0 Z " fill="#D132A1" transform="translate(123,79)"/>
<path d="M0 0 C5.43396226 0.60377358 5.43396226 0.60377358 7.875 2.3125 C9 4 9 4 9 8 C7.35 7.67 5.7 7.34 4 7 C3.67 5.68 3.34 4.36 3 3 C2.01 3 1.02 3 0 3 C0 2.01 0 1.02 0 0 Z " fill="#53308F" transform="translate(49,150)"/>
<path d="M0 0 C2.475 0.99 2.475 0.99 5 2 C4.25 8.75 4.25 8.75 2 11 C2 10.01 2 9.02 2 8 C0.68 7.34 -0.64 6.68 -2 6 C-1.34 4.02 -0.68 2.04 0 0 Z " fill="#983FC9" transform="translate(134,146)"/>
<path d="M0 0 C0.33 1.32 0.66 2.64 1 4 C1.66 4 2.32 4 3 4 C2.44210432 11.01524148 1.81552077 18.00982196 1 25 C0.67 25 0.34 25 0 25 C0 16.75 0 8.5 0 0 Z " fill="#E323A8" transform="translate(193,183)"/>
<path d="M0 0 C-4.29456388 2.30440013 -8.31479085 3.78184562 -13 5 C-13.33 4.67 -13.66 4.34 -14 4 C-17.06886617 3.71525984 -20.13775297 3.55128201 -23.21484375 3.37890625 C-26 3 -26 3 -28 1 C-26.70964844 1.02320313 -25.41929687 1.04640625 -24.08984375 1.0703125 C-22.37240166 1.08908236 -20.65495326 1.10728125 -18.9375 1.125 C-17.66616211 1.15013672 -17.66616211 1.15013672 -16.36914062 1.17578125 C-11.88005261 1.21044602 -3.51210377 -1.75605188 0 0 Z " fill="#CA26B9" transform="translate(164,176)"/>
<path d="M0 0 C2.23046875 -0.34375 2.23046875 -0.34375 5 0 C7.23828125 2.40625 7.23828125 2.40625 9.3125 5.5 C10.00988281 6.5209375 10.70726563 7.541875 11.42578125 8.59375 C11.94527344 9.3878125 12.46476562 10.181875 13 11 C12.34 11.66 11.68 12.32 11 13 C6 7.25 6 7.25 6 5 C5.38125 4.731875 4.7625 4.46375 4.125 4.1875 C2 3 2 3 0 0 Z " fill="#5B458C" transform="translate(85,163)"/>
<path d="M0 0 C7.92 0 15.84 0 24 0 C24 0.33 24 0.66 24 1 C22.83082031 1.06058594 21.66164062 1.12117188 20.45703125 1.18359375 C18.90884386 1.26804034 17.36066732 1.35268625 15.8125 1.4375 C15.04357422 1.47681641 14.27464844 1.51613281 13.48242188 1.55664062 C9.56748925 1.77507034 5.82879312 2.08692108 2 3 C2.33 4.32 2.66 5.64 3 7 C1.68 5.68 0.36 4.36 -1 3 C-0.67 2.01 -0.34 1.02 0 0 Z " fill="#B9199E" transform="translate(133,85)"/>
<path d="M0 0 C2.31 0.33 4.62 0.66 7 1 C3.25 3 3.25 3 1 3 C0.67 3.99 0.34 4.98 0 6 C-2.875 6.125 -2.875 6.125 -6 6 C-6.66 5.34 -7.32 4.68 -8 4 C-7.34 4 -6.68 4 -6 4 C-5.67 3.01 -5.34 2.02 -5 1 C-3.68 1.33 -2.36 1.66 -1 2 C-0.67 1.34 -0.34 0.68 0 0 Z " fill="#2C1673" transform="translate(97,184)"/>
<path d="M0 0 C5.61 0.66 11.22 1.32 17 2 C17 2.33 17 2.66 17 3 C16.00419922 3.09087891 16.00419922 3.09087891 14.98828125 3.18359375 C10.59613868 3.6003664 6.31990409 4.08365671 2 5 C1.01 5 0.02 5 -1 5 C-0.67 3.35 -0.34 1.7 0 0 Z " fill="#5C3E91" transform="translate(68,162)"/>
<path d="M0 0 C3 1.5625 3 1.5625 6 4 C6.375 7.75 6.375 7.75 6 11 C5.67 11 5.34 11 5 11 C4.67 9.35 4.34 7.7 4 6 C3.34 7.98 2.68 9.96 2 12 C1.67 12 1.34 12 1 12 C0.67 10.02 0.34 8.04 0 6 C-0.66 6.66 -1.32 7.32 -2 8 C-1.125 2.25 -1.125 2.25 0 0 Z " fill="#E450BB" transform="translate(90,107)"/>
<path d="M0 0 C4.33333333 4.33333333 8.66666667 8.66666667 13 13 C12.34 13.66 11.68 14.32 11 15 C9.34204471 13.45036847 7.69901956 11.88475231 6.0625 10.3125 C5.14597656 9.44238281 4.22945313 8.57226562 3.28515625 7.67578125 C0.95353228 4.94558908 0.29792703 3.51807447 0 0 Z " fill="#A157BC" transform="translate(96,163)"/>
<path d="M0 0 C3.1017144 4.6525716 5.52232988 9.29532915 4.6875 15 C4.460625 15.99 4.23375 16.98 4 18 C3.34 17.67 2.68 17.34 2 17 C1.4375 14.92578125 1.4375 14.92578125 1 12.3125 C0.29222232 8.39725362 -0.62060769 4.74406485 -2 1 C-1.34 0.67 -0.68 0.34 0 0 Z " fill="#CE6EC7" transform="translate(135,104)"/>
<path d="M0 0 C2.67901932 2.31881505 3.66204403 4.31814468 4.6875 7.6875 C4.93886719 8.49574219 5.19023437 9.30398437 5.44921875 10.13671875 C5.63097656 10.75160156 5.81273437 11.36648437 6 12 C4.35 12 2.7 12 1 12 C-1.22923777 7.67265609 -0.92470553 4.71599818 0 0 Z " fill="#DF36C8" transform="translate(130,100)"/>
<path d="M0 0 C3.80635497 3.20760251 7.54563567 6.40746109 11 10 C10.67 10.66 10.34 11.32 10 12 C7.9375 12.625 7.9375 12.625 6 13 C5.566875 11.9275 5.13375 10.855 4.6875 9.75 C3.44552705 6.82249233 1.95643046 4.51541059 0 2 C0 1.34 0 0.68 0 0 Z " fill="#DE6DC5" transform="translate(118,83)"/>
<path d="M0 0 C0.99 0.495 0.99 0.495 2 1 C2.33 7.27 2.66 13.54 3 20 C0 17 0 17 -0.34057617 15.09887695 C-0.32486572 14.40238037 -0.30915527 13.70588379 -0.29296875 12.98828125 C-0.28330078 12.23095703 -0.27363281 11.47363281 -0.26367188 10.69335938 C-0.23853516 9.90767578 -0.21339844 9.12199219 -0.1875 8.3125 C-0.17396484 7.51521484 -0.16042969 6.71792969 -0.14648438 5.89648438 C-0.11117089 3.93070033 -0.05736447 1.96526418 0 0 Z " fill="#572399" transform="translate(21,83)"/>
<path d="M0 0 C1.125 4.75 1.125 4.75 0 7 C0.66 7.66 1.32 8.32 2 9 C-0.31 8.67 -2.62 8.34 -5 8 C-5.75 6.25 -5.75 6.25 -6 4 C-2.77777778 0 -2.77777778 0 0 0 Z " fill="#31177E" transform="translate(55,176)"/>
<path d="M0 0 C0.99 0.33 1.98 0.66 3 1 C1.0972454 4.36641199 -0.1972943 6.58931336 -3.6875 8.375 C-7.8390718 9.15831543 -11.79031607 9.16838736 -16 9 C-16 8.67 -16 8.34 -16 8 C-15.09636719 7.84144531 -14.19273437 7.68289062 -13.26171875 7.51953125 C-12.08222656 7.28621094 -10.90273437 7.05289063 -9.6875 6.8125 C-7.92986328 6.48185547 -7.92986328 6.48185547 -6.13671875 6.14453125 C-2.82173613 5.26344775 -2.82173613 5.26344775 -1.08203125 2.38671875 C-0.72496094 1.59910156 -0.36789063 0.81148437 0 0 Z " fill="#E631AB" transform="translate(165,168)"/>
<path d="M0 0 C1.65 0.33 3.3 0.66 5 1 C5 1.66 5 2.32 5 3 C6.32 3.33 7.64 3.66 9 4 C3.555 6.475 3.555 6.475 -2 9 C-2 8.01 -2 7.02 -2 6 C-1.34 5.67 -0.68 5.34 0 5 C0 3.35 0 1.7 0 0 Z " fill="#8452B6" transform="translate(62,97)"/>
<path d="M0 0 C4.55700425 0.52484692 7.192874 2.31507303 10.8125 5.0625 C11.78832031 5.79597656 12.76414063 6.52945313 13.76953125 7.28515625 C14.87361328 8.13400391 14.87361328 8.13400391 16 9 C13.92446352 9.5534764 12.15634036 10 10 10 C10 9.34 10 8.68 10 8 C9.34 8 8.68 8 8 8 C8 7.34 8 6.68 8 6 C7.01 5.67 6.02 5.34 5 5 C3.4375 3.5625 3.4375 3.5625 2 2 C1.34 1.34 0.68 0.68 0 0 Z " fill="#F0B9A0" transform="translate(171,75)"/>
<path d="M0 0 C0.33 0.66 0.66 1.32 1 2 C0.01 2.99 -0.98 3.98 -2 5 C-4.31 4.01 -6.62 3.02 -9 2 C-7.0184954 -1.96300919 -3.67160038 -1.06283169 0 0 Z " fill="#6B2BBC" transform="translate(133,152)"/>
<path d="M0 0 C4.85105329 2.8437209 6.21396096 7.21313431 7.6875 12.4375 C7.790625 12.953125 7.89375 13.46875 8 14 C6.02 13.34 4.04 12.68 2 12 C2 8.88742431 2.17361624 6.89234315 3 4 C1.68 3.67 0.36 3.34 -1 3 C-0.67 2.01 -0.34 1.02 0 0 Z " fill="#EE8259" transform="translate(192,92)"/>
<path d="M0 0 C0.87527344 -0.03996094 1.75054687 -0.07992187 2.65234375 -0.12109375 C3.84537109 0.15541016 3.84537109 0.15541016 5.0625 0.4375 C6.0525 2.0875 7.0425 3.7375 8.0625 5.4375 C3.1125 4.4475 -1.8375 3.4575 -6.9375 2.4375 C-4.44632422 -0.05367578 -3.44894551 0.08609702 0 0 Z " fill="#B336CE" transform="translate(87.9375,81.5625)"/>
<path d="M0 0 C3.58522876 1.47065925 5.44386096 3.40065542 7.8125 6.4375 C8.43769531 7.21996094 9.06289062 8.00242187 9.70703125 8.80859375 C10.34705078 9.89333984 10.34705078 9.89333984 11 11 C10.67 11.99 10.34 12.98 10 14 C9.4225 13.2575 8.845 12.515 8.25 11.75 C6.12325516 9.02944813 6.12325516 9.02944813 3.875 7 C1.80289648 4.78975625 0.95111182 2.85333546 0 0 Z " fill="#9E27C3" transform="translate(110,96)"/>
<path d="M0 0 C3.34373475 0.55728913 6.03312999 1.35173889 9 3 C9 3.66 9 4.32 9 5 C10.32 5.33 11.64 5.66 13 6 C13 6.66 13 7.32 13 8 C13.66 8 14.32 8 15 8 C14.67 8.99 14.34 9.98 14 11 C13.40832031 10.52949219 12.81664062 10.05898437 12.20703125 9.57421875 C8.24650237 6.45360627 4.36763396 3.53604553 0 1 C0 0.67 0 0.34 0 0 Z " fill="#F97390" transform="translate(165,87)"/>
<path d="M0 0 C2.475 0.99 2.475 0.99 5 2 C4.875 3.875 4.875 3.875 4 6 C0.9375 7.25 0.9375 7.25 -2 8 C-2 7.34 -2 6.68 -2 6 C-2.66 5.67 -3.32 5.34 -4 5 C-3.01 4.67 -2.02 4.34 -1 4 C-0.26676204 1.98491642 -0.26676204 1.98491642 0 0 Z " fill="#C31ABC" transform="translate(167,93)"/>
<path d="M0 0 C1.79260132 0.05995322 3.58425795 0.1487241 5.375 0.25 C6.87160156 0.31960937 6.87160156 0.31960937 8.3984375 0.390625 C11 1 11 1 12.3515625 3.046875 C12.56554687 3.69140625 12.77953125 4.3359375 13 5 C11.35 5 9.7 5 8 5 C8 4.34 8 3.68 8 3 C6.865625 2.87625 5.73125 2.7525 4.5625 2.625 C3.386875 2.41875 2.21125 2.2125 1 2 C0.67 1.34 0.34 0.68 0 0 Z " fill="#F02E9E" transform="translate(137,165)"/>
<path d="M0 0 C0.33 0 0.66 0 1 0 C1.19335938 0.66386719 1.38671875 1.32773438 1.5859375 2.01171875 C3.52751352 8.59789309 3.52751352 8.59789309 6 15 C4.125 14.6875 4.125 14.6875 2 14 C-0.28062828 10.57905758 -0.21925007 9.31812778 -0.125 5.3125 C-0.10695312 4.31863281 -0.08890625 3.32476562 -0.0703125 2.30078125 C-0.04710937 1.54152344 -0.02390625 0.78226563 0 0 Z " fill="#7F64A4" transform="translate(48,136)"/>
<path d="M0 0 C5.89155605 0.99501835 10.34423142 2.15899092 15 6 C15.33 6.99 15.66 7.98 16 9 C13.43365172 7.76815282 11.00041934 6.4013162 8.5625 4.9375 C5.73598108 3.29885002 3.28047665 2.39763353 0 2 C0 1.34 0 0.68 0 0 Z " fill="#BD38D0" transform="translate(96,87)"/>
<path d="M0 0 C1.75091019 0.08754551 3.50079551 0.19573373 5.25 0.3125 C6.22453125 0.37050781 7.1990625 0.42851562 8.203125 0.48828125 C11.25341611 1.04636524 12.70711276 1.96369776 15 4 C4.27475338 4.56229448 4.27475338 4.56229448 0 1 C0 0.67 0 0.34 0 0 Z " fill="#A14EBB" transform="translate(126,187)"/>
<path d="M0 0 C1.76227952 2.64341928 3.19871008 5.23077235 4.625 8.0625 C5.07101563 8.94035156 5.51703125 9.81820312 5.9765625 10.72265625 C7 13 7 13 7 15 C7.99 15.33 8.98 15.66 10 16 C9.01 16.33 8.02 16.66 7 17 C2.12893171 11.53308238 0.03413758 7.37371799 0 0 Z " fill="#CB38B0" transform="translate(114,138)"/>
<path d="M0 0 C3 1 3 1 5 4 C5 4.99 5 5.98 5 7 C3.35 7.33 1.7 7.66 0 8 C-1.125 6.25 -1.125 6.25 -2 4 C-1.125 1.75 -1.125 1.75 0 0 Z " fill="#7A2BC3" transform="translate(127,144)"/>
<path d="M0 0 C2.62451617 2.62451617 2.5832868 4.4877828 3.125 8.125 C3.29257813 9.22070312 3.46015625 10.31640625 3.6328125 11.4453125 C3.75398438 12.28835937 3.87515625 13.13140625 4 14 C3.01 14 2.02 14 1 14 C-0.38226016 11.23547967 -0.09525387 8.9538637 -0.0625 5.875 C-0.05347656 4.77929688 -0.04445313 3.68359375 -0.03515625 2.5546875 C-0.02355469 1.71164063 -0.01195313 0.86859375 0 0 Z " fill="#D82FC2" transform="translate(98,130)"/>
<path d="M0 0 C2.97 1.65 5.94 3.3 9 5 C8.67 5.99 8.34 6.98 8 8 C7.67 7.01 7.34 6.02 7 5 C2.545 5.495 2.545 5.495 -2 6 C-1.34 4.02 -0.68 2.04 0 0 Z " fill="#DF6CA7" transform="translate(93,101)"/>
<path d="M0 0 C1.32 1.32 2.64 2.64 4 4 C-0.95 3.67 -5.9 3.34 -11 3 C-4.03846154 -0.48076923 -4.03846154 -0.48076923 0 0 Z " fill="#6E33A6" transform="translate(86,95)"/>
<path d="M0 0 C0 0.66 0 1.32 0 2 C-3.37097383 3.49821059 -5.20442119 4 -9 4 C-9 4.66 -9 5.32 -9 6 C-11.31 6 -13.62 6 -16 6 C-13.78902756 3.78902756 -12.44259448 3.34989537 -9.5 2.4375 C-1.72020725 0 -1.72020725 0 0 0 Z " fill="#B12AB7" transform="translate(165,184)"/>
<path d="M0 0 C5.16483516 7.74725275 5.16483516 7.74725275 4.6875 11.375 C4.460625 11.91125 4.23375 12.4475 4 13 C4 12.34 4 11.68 4 11 C2.68 10.67 1.36 10.34 0 10 C0.020625 9.071875 0.04125 8.14375 0.0625 7.1875 C0.15769604 3.97713989 0.15769604 3.97713989 -1 1 C-0.67 0.67 -0.34 0.34 0 0 Z " fill="#D01CA2" transform="translate(186,110)"/>
<path d="M0 0 C5.26267902 3.84147426 7.83207458 6.51152543 9 13 C7.1875 12.4375 7.1875 12.4375 5 11 C3.375 7.625 3.375 7.625 2 4 C1.34652926 2.66014993 0.68296094 1.32506097 0 0 Z " fill="#DB50A3" transform="translate(102,107)"/>
<path d="M0 0 C3.96 1.98 3.96 1.98 8 4 C8 4.99 8 5.98 8 7 C8.66 7.33 9.32 7.66 10 8 C6 8 6 8 4.296875 6.7578125 C3.78640625 6.21898437 3.2759375 5.68015625 2.75 5.125 C2.22921875 4.59132812 1.7084375 4.05765625 1.171875 3.5078125 C0 2 0 2 0 0 Z " fill="#D970AF" transform="translate(184,221)"/>
<path d="M0 0 C-0.99 0.33 -1.98 0.66 -3 1 C-3 1.66 -3 2.32 -3 3 C-6.63 3.33 -10.26 3.66 -14 4 C-12.68 3.67 -11.36 3.34 -10 3 C-10 2.34 -10 1.68 -10 1 C-3.375 -1.125 -3.375 -1.125 0 0 Z " fill="#A032A6" transform="translate(166,187)"/>
<path d="M0 0 C6.50313209 -0.46450943 10.4174808 0.67424388 16 4 C15.67 4.66 15.34 5.32 15 6 C13.35 5.67 11.7 5.34 10 5 C10 4.01 10 3.02 10 2 C6.7 1.67 3.4 1.34 0 1 C0 0.67 0 0.34 0 0 Z " fill="#E17F64" transform="translate(160,74)"/>
<path d="M0 0 C4 4.625 4 4.625 4 8 C5.32 8.33 6.64 8.66 8 9 C7.67 10.32 7.34 11.64 7 13 C3.66366632 10.00880429 1.75472293 7.12359889 0 3 C0 2.01 0 1.02 0 0 Z " fill="#8123A3" transform="translate(116,141)"/>
<path d="M0 0 C0.66 0 1.32 0 2 0 C2.33 1.65 2.66 3.3 3 5 C3.99 5.33 4.98 5.66 6 6 C5.01 6.33 4.02 6.66 3 7 C0.3125 5.5625 0.3125 5.5625 -2 4 C-1.34 2.68 -0.68 1.36 0 0 Z " fill="#F836A1" transform="translate(195,223)"/>
<path d="M0 0 C2.12508244 3.18762365 2.5020163 5.26512223 3 9 C2.01 9 1.02 9 0 9 C-1.3950848 6.70221327 -2.07438619 5.5207033 -1.6875 2.8125 C-1 1 -1 1 0 0 Z " fill="#E260AC" transform="translate(182,210)"/>
<path d="M0 0 C4.5 4.5 4.5 4.5 4.75 8.75 C4.80671875 9.54921875 4.8634375 10.3484375 4.921875 11.171875 C4.94765625 11.77515625 4.9734375 12.3784375 5 13 C4.34 13 3.68 13 3 13 C2.01 8.71 1.02 4.42 0 0 Z " fill="#FD7679" transform="translate(191,112)"/>
<path d="M0 0 C0.66 0.33 1.32 0.66 2 1 C1.67 1.66 1.34 2.32 1 3 C1.99 3.33 2.98 3.66 4 4 C5.25 5.8125 5.25 5.8125 6 8 C5.546875 10.13671875 5.546875 10.13671875 5 12 C4.01941648 10.54261898 3.04057868 9.08406325 2.0625 7.625 C1.51722656 6.81289062 0.97195312 6.00078125 0.41015625 5.1640625 C-1 3 -1 3 -2 1 C-1.34 0.67 -0.68 0.34 0 0 Z " fill="#CB6ABD" transform="translate(171,107)"/>
<path d="M0 0 C2 2 2 2 2.0625 4.3125 C2.041875 5.199375 2.02125 6.08625 2 7 C2.185625 7.886875 2.37125 8.77375 2.5625 9.6875 C3 12 3 12 2 14 C1.34 14 0.68 14 0 14 C0 9.38 0 4.76 0 0 Z " fill="#431C88" transform="translate(21,100)"/>
<path d="M0 0 C0.66 0.33 1.32 0.66 2 1 C2 1.66 2 2.32 2 3 C2.99 2.34 3.98 1.68 5 1 C5.99 1.33 6.98 1.66 8 2 C7.34 2 6.68 2 6 2 C6.33 3.65 6.66 5.3 7 7 C3.5625 5.6875 3.5625 5.6875 0 4 C-0.33 3.01 -0.66 2.02 -1 1 C-0.67 0.67 -0.34 0.34 0 0 Z " fill="#AC32D6" transform="translate(112,175)"/>
<path d="M0 0 C0.66 0.33 1.32 0.66 2 1 C1.5206753 5.31392226 0.2542015 7.16569547 -3 10 C-2.67 7.69 -2.34 5.38 -2 3 C-1.34 3 -0.68 3 0 3 C0 2.01 0 1.02 0 0 Z " fill="#890678" transform="translate(177,147)"/>
<path d="M0 0 C5.2162083 -0.3129725 8.56575777 0.14941571 13 3 C13.33 3.99 13.66 4.98 14 6 C13.360625 5.731875 12.72125 5.46375 12.0625 5.1875 C8.08797739 3.64635858 4.05115505 2.32390688 0 1 C0 0.67 0 0.34 0 0 Z " fill="#9845AE" transform="translate(87,99)"/>
<path d="M0 0 C4.29 0.66 8.58 1.32 13 2 C13 2.66 13 3.32 13 4 C7.73946963 4.31563182 4.55426184 3.66590937 0 1 C0 0.67 0 0.34 0 0 Z " fill="#D378B0" transform="translate(193,230)"/>
<path d="M0 0 C2.86724686 0.57344937 3.8614515 0.8614515 6 3 C6.39764263 4.98821313 6.73775349 6.98944339 7 9 C5.82460004 8.07347299 4.65989423 7.13336613 3.5 6.1875 C2.52546875 5.40439453 2.52546875 5.40439453 1.53125 4.60546875 C0 3 0 3 0 0 Z " fill="#BA1D91" transform="translate(177,98)"/>
<path d="M0 0 C3.125 6.25 3.125 6.25 2.5625 10.625 C2.40974609 11.85089844 2.40974609 11.85089844 2.25390625 13.1015625 C2.17011719 13.72804688 2.08632813 14.35453125 2 15 C1.87625 14.360625 1.7525 13.72125 1.625 13.0625 C1.41875 12.381875 1.2125 11.70125 1 11 C0.34 10.67 -0.32 10.34 -1 10 C-0.67 6.7 -0.34 3.4 0 0 Z " fill="#8733BB" transform="translate(45,76)"/>
<path d="M0 0 C10.55808656 0.77904328 10.55808656 0.77904328 15 3 C12.00468461 3.99843846 10.82744268 4.00732761 7.8125 3.5625 C6.554375 3.376875 5.29625 3.19125 4 3 C4 2.34 4 1.68 4 1 C2.68 0.67 1.36 0.34 0 0 Z " fill="#F0C0B2" transform="translate(156,71)"/>
<path d="M0 0 C0 0.66 0 1.32 0 2 C-2.70879335 3.35439668 -5.00933268 3.06501451 -8 3 C-7.67 2.01 -7.34 1.02 -7 0 C-4.05610218 -1.17755913 -3.10046087 -1.03348696 0 0 Z " fill="#A13DA3" transform="translate(177,183)"/>
<path d="M0 0 C3.875 1.75 3.875 1.75 5 4 C7.01669827 5.13350534 7.01669827 5.13350534 9 6 C8.01 7.485 8.01 7.485 7 9 C6.67 8.34 6.34 7.68 6 7 C5.360625 6.9175 4.72125 6.835 4.0625 6.75 C3.381875 6.5025 2.70125 6.255 2 6 C0.75 2.9375 0.75 2.9375 0 0 Z " fill="#2B176C" transform="translate(33,166)"/>
<path d="M0 0 C3.3 0.66 6.6 1.32 10 2 C10 2.33 10 2.66 10 3 C5.38 3 0.76 3 -4 3 C-2.68 2.67 -1.36 2.34 0 2 C0 1.34 0 0.68 0 0 Z " fill="#EB4CA7" transform="translate(138,81)"/>
<path d="M0 0 C4.39158329 1.4638611 4.87947433 3.97831338 7 8 C6.34 8.66 5.68 9.32 5 10 C4.15801693 8.90241493 3.32669329 7.79664683 2.5 6.6875 C2.0359375 6.07261719 1.571875 5.45773438 1.09375 4.82421875 C0 3 0 3 0 0 Z " fill="#AD46A3" transform="translate(129,85)"/>
<path d="M0 0 C1.98 0 3.96 0 6 0 C5.34 1.65 4.68 3.3 4 5 C2.66666667 5 1.33333333 5 0 5 C0 3.35 0 1.7 0 0 Z " fill="#6832A3" transform="translate(49,79)"/>
<path d="M0 0 C1.43861294 0.08746284 2.87597508 0.19565348 4.3125 0.3125 C5.11300781 0.37050781 5.91351563 0.42851562 6.73828125 0.48828125 C9.36272334 1.08206694 10.30820672 1.95780294 12 4 C7.12335991 4.34833144 4.22949995 3.41685712 0 1 C0 0.67 0 0.34 0 0 Z " fill="#C429CF" transform="translate(126,175)"/>
<path d="M0 0 C4.29 0 8.58 0 13 0 C9.01724138 2.65517241 9.01724138 2.65517241 6 3 C2.75 2.0625 2.75 2.0625 0 1 C0 0.67 0 0.34 0 0 Z " fill="#E73596" transform="translate(143,165)"/>
<path d="M0 0 C-0.33 4.62 -0.66 9.24 -1 14 C-1.33 14 -1.66 14 -2 14 C-2.33 9.71 -2.66 5.42 -3 1 C-1 0 -1 0 0 0 Z " fill="#8F6FB2" transform="translate(49,122)"/>
<path d="M0 0 C0.99 0 1.98 0 3 0 C2.01 2.97 1.02 5.94 0 9 C-0.33 9 -0.66 9 -1 9 C-1.09765625 2.84765625 -1.09765625 2.84765625 -1 1 C-0.67 0.67 -0.34 0.34 0 0 Z " fill="#6C598E" transform="translate(50,113)"/>
<path d="M0 0 C1.65 1.65 3.3 3.3 5 5 C4.34 5 3.68 5 3 5 C2.67 5.66 2.34 6.32 2 7 C0.4375 5.75 0.4375 5.75 -1 4 C-0.6875 1.8125 -0.6875 1.8125 0 0 Z " fill="#C651AB" transform="translate(126,80)"/>
<path d="M0 0 C1.32 0 2.64 0 4 0 C3.814375 0.763125 3.62875 1.52625 3.4375 2.3125 C2.77180827 5.08967375 2.77180827 5.08967375 4 8 C3.34 8 2.68 8 2 8 C0.23537317 4.91190305 0 3.76687864 0 0 Z " fill="#A82CCD" transform="translate(26,33)"/>
<path d="M0 0 C2.9375 0.8125 2.9375 0.8125 6 2 C6.33 2.99 6.66 3.98 7 5 C7.66 5 8.32 5 9 5 C8.67 5.66 8.34 6.32 8 7 C2.25 3.375 2.25 3.375 0 0 Z " fill="#8320A4" transform="translate(124,154)"/>
<path d="M0 0 C0.66 0.33 1.32 0.66 2 1 C1.67 3.31 1.34 5.62 1 8 C0.67 7.01 0.34 6.02 0 5 C-0.99 4.67 -1.98 4.34 -3 4 C-2.01 2.68 -1.02 1.36 0 0 Z " fill="#8D4CBA" transform="translate(136,149)"/>
<path d="M0 0 C0 1.65 0 3.3 0 5 C-1.98 5 -3.96 5 -6 5 C-6 4.01 -6 3.02 -6 2 C-1.125 0 -1.125 0 0 0 Z " fill="#401485" transform="translate(54,103)"/>
<path d="M0 0 C0 0.66 0 1.32 0 2 C0.66 2.33 1.32 2.66 2 3 C-0.31 3.33 -2.62 3.66 -5 4 C-5.33 3.01 -5.66 2.02 -6 1 C-3 0 -3 0 0 0 Z " fill="#D460A6" transform="translate(127,74)"/>
<path d="M0 0 C3.63 0 7.26 0 11 0 C10.67 0.99 10.34 1.98 10 3 C9.01 3 8.02 3 7 3 C7 2.34 7 1.68 7 1 C6.01 1.33 5.02 1.66 4 2 C2.68 1.34 1.36 0.68 0 0 Z " fill="#C632C7" transform="translate(84,75)"/>
<path d="M0 0 C1.32 0.33 2.64 0.66 4 1 C4 1.66 4 2.32 4 3 C5.32 3.66 6.64 4.32 8 5 C5.69 4.67 3.38 4.34 1 4 C0.67 2.68 0.34 1.36 0 0 Z " fill="#251364" transform="translate(49,180)"/>
<path d="M0 0 C1.98 0.66 3.96 1.32 6 2 C6 2.66 6 3.32 6 4 C7.32 4.33 8.64 4.66 10 5 C9.01 5.33 8.02 5.66 7 6 C5.17578125 5.0390625 5.17578125 5.0390625 3.3125 3.625 C2.68988281 3.16351563 2.06726563 2.70203125 1.42578125 2.2265625 C0.95527344 1.82179687 0.48476562 1.41703125 0 1 C0 0.67 0 0.34 0 0 Z " fill="#D227C7" transform="translate(118,168)"/>
<path d="M0 0 C2.5 2.3125 2.5 2.3125 5 5 C5 5.99 5 6.98 5 8 C2.5 5.6875 2.5 5.6875 0 3 C0 2.01 0 1.02 0 0 Z " fill="#AB5EBF" transform="translate(96,163)"/>
<path d="M0 0 C2.64 0.33 5.28 0.66 8 1 C8 1.33 8 1.66 8 2 C6.02 2 4.04 2 2 2 C1.67 2.99 1.34 3.98 1 5 C0.34 5 -0.32 5 -1 5 C-0.67 3.35 -0.34 1.7 0 0 Z " fill="#7C61AE" transform="translate(68,162)"/>
<path d="M0 0 C1.485 0.99 1.485 0.99 3 2 C3.99 2.33 4.98 2.66 6 3 C6 3.99 6 4.98 6 6 C4.35 5.67 2.7 5.34 1 5 C0.67 3.35 0.34 1.7 0 0 Z " fill="#76689E" transform="translate(25,157)"/>
<path d="M0 0 C0.99 0 1.98 0 3 0 C1.25 4.875 1.25 4.875 -1 6 C-1.625 4.125 -1.625 4.125 -2 2 C-1.34 1.34 -0.68 0.68 0 0 Z " fill="#684992" transform="translate(54,107)"/>
<path d="M0 0 C2.79872437 2.52788007 4.45773019 4.20411134 5 8 C3.0625 7.375 3.0625 7.375 1 6 C0.25 2.875 0.25 2.875 0 0 Z " fill="#ECB199" transform="translate(196,95)"/>
<path d="M0 0 C0.99 0.33 1.98 0.66 3 1 C2.34 1 1.68 1 1 1 C0.67 1.99 0.34 2.98 0 4 C-2.31 4.33 -4.62 4.66 -7 5 C-4.702779 3.25728062 -2.40133271 1.60088848 0 0 Z " fill="#9670B8" transform="translate(58,74)"/>
<path d="M0 0 C2.475 0.99 2.475 0.99 5 2 C5 2.99 5 3.98 5 5 C4.67 5.33 4.34 5.66 4 6 C3.01 5.67 2.02 5.34 1 5 C0.67 3.35 0.34 1.7 0 0 Z " fill="#BA67C1" transform="translate(36,35)"/>
<path d="M0 0 C-2.91765 1.9451 -4.62537285 2.45276317 -8 3 C-7.67 2.01 -7.34 1.02 -7 0 C-4.3333581 -1.33332095 -2.83319697 -0.67102033 0 0 Z " fill="#60528A" transform="translate(105,187)"/>
<path d="M0 0 C3.34373475 0.55728913 6.03312999 1.35173889 9 3 C6.1875 3.625 6.1875 3.625 3 4 C2.01 3.34 1.02 2.68 0 2 C0 1.34 0 0.68 0 0 Z " fill="#DE69C0" transform="translate(131,160)"/>
<path d="M0 0 C1.32 0.33 2.64 0.66 4 1 C3.67 2.65 3.34 4.3 3 6 C1.5 4.6875 1.5 4.6875 0 3 C0 2.01 0 1.02 0 0 Z " fill="#2D1967" transform="translate(25,154)"/>
<path d="M0 0 C1.85776765 3.13498292 2.20140476 5.37471432 2 9 C0.5 7.8125 0.5 7.8125 -1 6 C-1.25 3.375 -1.25 3.375 -1 1 C-0.67 0.67 -0.34 0.34 0 0 Z " fill="#4D1E92" transform="translate(22,94)"/>
</svg>
